<svg width="251pt" height="356pt" viewBox="0.00 0.00 251.00 356.00" xmlns="http://www.w3.org/2000/svg"><g class="graph" transform="translate(4 352)"><title>%3</title><path fill="#fff" d="M-4 4v-356h251V4H-4z"/><g class="node"><title>xscan</title><path fill="lightgray" stroke="lightgray" d="M243.312-348h-78.624v36h78.624v-36z"/><text text-anchor="middle" x="204" y="-325.8" font-family="Times,serif" font-size="14">for z in [...]</text></g><g class="node"><title>yscan</title><path fill="lightgray" stroke="lightgray" d="M209.902-276h-79.804v36h79.804v-36z"/><text text-anchor="middle" x="170" y="-253.8" font-family="Times,serif" font-size="14">for x in [...]</text></g><g class="edge"><title>xscan-&amp;gt;yscan</title><path fill="none" stroke="#000" d="M195.596-311.697l-12.839 26.433"/><path stroke="#000" d="M185.825-283.57l-7.517 7.466 1.221-10.525 6.296 3.059z"/></g><g class="node"><title>zscan</title><path fill="lightgray" stroke="lightgray" d="M171.902-204H92.098v36h79.804v-36z"/><text text-anchor="middle" x="132" y="-181.8" font-family="Times,serif" font-size="14">for y in [...]</text></g><g class="edge"><title>yscan-&amp;gt;zscan</title><path fill="none" stroke="#000" d="M160.607-239.697l-14.502 26.715"/><path stroke="#000" d="M149.132-211.223l-7.847 7.119 1.695-10.459 6.152 3.34z"/></g><g class="node"><title>move</title><ellipse fill="#90ee90" stroke="#90ee90" cx="67" cy="-102" rx="67.18" ry="29.331"/><text text-anchor="middle" x="67" y="-106.2" font-family="Times,serif" font-size="14">Update Motor</text><text text-anchor="middle" x="67" y="-89.4" font-family="Times,serif" font-size="14">Positions</text></g><g class="edge"><title>zscan-&amp;gt;move</title><path fill="none" stroke="#000" d="M118.215-167.61l-23.407 29.529"/><path stroke="#000" d="M97.396-135.711l-8.955 5.662 3.47-10.01 5.485 4.348z"/></g><g class="node"><title>scan</title><ellipse fill="#b0c4de" stroke="#b0c4de" cx="181" cy="-18" rx="47.978" ry="18"/><text text-anchor="middle" x="181" y="-13.8" font-family="Times,serif" font-size="14">Run Scan</text></g><g class="edge"><title>move-&amp;gt;scan</title><path fill="none" stroke="#000" d="M101.204-76.397l50.378 36.237"/><path stroke="#000" d="M153.657-42.98l6.074 8.681-10.162-2.998 4.088-5.683z"/></g><g class="edge"><title>scan-&amp;gt;xscan</title><path fill="none" stroke="red" stroke-dasharray="5,2" d="M187.332-35.964C190.949-46.258 195.291-59.734 198-72c16.228-73.477 16.324-92.898 21-168 .994-15.969 2.199-20.152 0-36-1.275-9.188-3.737-19.022-6.304-27.694"/><ellipse fill="red" stroke="red" cx="211.426" cy="-307.774" rx="4" ry="4"/></g><g class="edge"><title>scan-&amp;gt;yscan</title><path fill="none" stroke="red" stroke-dasharray="5,2" d="M182.166-36.148C184.133-68.883 187.315-142.496 181-204c-.946-9.21-2.792-19.18-4.707-27.961"/><ellipse fill="red" stroke="red" cx="175.357" cy="-236.054" rx="4" ry="4"/></g><g class="edge"><title>scan-&amp;gt;zscan</title><path fill="none" stroke="red" stroke-dasharray="5,2" d="M175.895-36.295l-36.45-123.485"/><ellipse fill="red" stroke="red" cx="138.192" cy="-164.024" rx="4" ry="4"/></g></g></svg>