<svg width="164" height="280pt" viewBox="0.00 0.00 122.74 280.00" xmlns="http://www.w3.org/2000/svg"><g class="graph" transform="translate(4 276)"><title>%3</title><path fill="#fff" d="M-4 4v-280h122.745V4H-4z"/><g class="node"><title>user</title><ellipse fill="none" stroke="purple" cx="44" cy="-242" rx="28.9" ry="29.032"/><text text-anchor="middle" x="44" y="-237.8" font-family="Times,serif" font-size="14">User</text></g><g class="node"><title>driver</title><path fill="lightgray" stroke="lightgray" d="M71-142H17v36h54v-36z"/><text text-anchor="middle" x="44" y="-119.8" font-family="Times,serif" font-size="14">Driver</text></g><g class="edge"><title>user-&amp;gt;driver</title><path fill="none" stroke="#000" d="M44-212.623v60.12"/><path stroke="#000" d="M47.5-152.292l-3.5 10-3.5-10h7z"/><text text-anchor="middle" x="64.213" y="-181.2" font-family="Times,serif" font-size="14">Load</text><text text-anchor="middle" x="64.213" y="-164.4" font-family="Times,serif" font-size="14">Images</text></g><g class="node"><title>master</title><path fill="#90ee90" stroke="#90ee90" d="M88.02-36H-.02V0h88.04v-36z"/><text text-anchor="middle" x="44" y="-13.8" font-family="Times,serif" font-size="14">Master Node</text></g><g class="edge"><title>driver-&amp;gt;master</title><path fill="none" stroke="#000" d="M44-105.827v59.554"/><path stroke="#000" d="M47.5-46.199l-3.5 10-3.5-10h7z"/><text text-anchor="middle" x="79.372" y="-75.2" font-family="Times,serif" font-size="14">read_images</text><text text-anchor="middle" x="79.372" y="-58.4" font-family="Times,serif" font-size="14">(0-9)</text></g></g></svg>