<svg width="307pt" height="476pt" viewBox="0.00 0.00 307.00 476.00" xmlns="http://www.w3.org/2000/svg"><g class="graph" transform="translate(4 472)"><title>%3</title><path fill="#fff" d="M-4 4v-476h307V4H-4z"/><g class="node"><title>Query</title><path fill="red" stroke="red" d="M158-468h-54v36h54v-36z"/><text text-anchor="middle" x="131" y="-445.8" font-family="Times,serif" font-size="14">Query</text></g><g class="node"><title>Spark SQL</title><path fill="#b0c4de" stroke="#b0c4de" d="M169.951-396H92.049v36h77.902v-36z"/><text text-anchor="middle" x="131" y="-373.8" font-family="Times,serif" font-size="14">Spark SQL</text></g><g class="edge"><title>Query-&amp;gt;Spark SQL</title><path fill="none" stroke="red" d="M131-431.697v25.585"/><path fill="red" stroke="red" d="M134.5-406.104l-3.5 10-3.5-10h7z"/></g><g class="node"><title>Private Database</title><path fill="red" stroke="red" d="M299.341-396H188.659v36h110.682v-36z"/><text text-anchor="middle" x="244" y="-373.8" font-family="Times,serif" font-size="14">Private Database</text></g><g class="node"><title>SDB</title><path fill="#90ee90" stroke="#90ee90" d="M201.454-324H60.546v36h140.908v-36z"/><text text-anchor="middle" x="131" y="-301.8" font-family="Times,serif" font-size="14">Spark Image Database</text></g><g class="edge"><title>Private Database-&amp;gt;SDB</title><path fill="none" stroke="#000" d="M216.357-359.876l-50.38 31.209"/><ellipse stroke="#000" cx="162.15" cy="-326.296" rx="4" ry="4"/></g><g class="node"><title>SIL</title><path fill="#90ee90" stroke="#90ee90" d="M124.46-252H1.54v36h122.92v-36z"/><text text-anchor="middle" x="63" y="-229.8" font-family="Times,serif" font-size="14">Spark Image Layer</text></g><g class="edge"><title>SDB-&amp;gt;SIL</title><path fill="none" stroke="red" d="M114.191-287.697l-27.58 28.393"/><path fill="red" stroke="red" d="M89.094-256.838l-9.478 4.734 4.457-9.612 5.021 4.878z"/></g><g class="edge"><title>SDB-&amp;gt;Spark SQL</title><path fill="none" stroke="#000" d="M136.895-324.104c.867-8.279 1.075-18.384.622-27.536"/><ellipse stroke="#000" cx="137.214" cy="-355.708" rx="4" ry="4"/></g><g class="node"><title>Spark Core</title><path fill="#b0c4de" stroke="#b0c4de" d="M102.526-108H23.474v36h79.052v-36z"/><text text-anchor="middle" x="63" y="-85.8" font-family="Times,serif" font-size="14">Spark Core</text></g><g class="edge"><title>SDB-&amp;gt;Spark Core</title><path fill="none" stroke="#000" d="M144.9-287.711C168.006-256.726 208.957-190.623 179-144c-15.12 23.532-43.565 36.745-68.502 44.094"/><ellipse stroke="#000" cx="106.403" cy="-98.781" rx="4" ry="4"/></g><g class="edge"><title>SIL-&amp;gt;Spark Core</title><path fill="none" stroke="#000" d="M38.986-215.846c-9 9.722-17.811 22.572-21.986 35.846-4.8 15.263-4.8 20.737 0 36 3.327 10.578 9.598 20.886 16.562 29.557"/><ellipse stroke="#000" cx="36.373" cy="-111.184" rx="4" ry="4"/></g><g class="edge"><title>SIL-&amp;gt;Spark Core</title><path fill="none" stroke="red" d="M54.94-215.846C47.986-206.124 39.175-193.274 35-180c-4.8 15.263-4.8 20.737 0 36 3.066 9.748 8.632 19.267 14.127 27.487"/><path fill="red" stroke="red" d="M52.104-118.363l2.836 10.209-8.583-6.212 5.747-3.997z"/></g><g class="node"><title>MLLib</title><path fill="#b0c4de" stroke="#b0c4de" d="M91.331-180H34.67v36H91.33v-36z"/><text text-anchor="middle" x="63" y="-157.8" font-family="Times,serif" font-size="14">MLLib</text></g><g class="edge"><title>SIL-&amp;gt;MLLib</title><path fill="none" stroke="#000" d="M63-215.697v27.556"/><ellipse stroke="#000" cx="63" cy="-184.104" rx="4" ry="4"/></g><g class="node"><title>GraphX</title><path fill="#b0c4de" stroke="#b0c4de" d="M170.316-180h-60.632v36h60.632v-36z"/><text text-anchor="middle" x="140" y="-157.8" font-family="Times,serif" font-size="14">GraphX</text></g><g class="edge"><title>SIL-&amp;gt;GraphX</title><path fill="none" stroke="#000" d="M82.034-215.697l33.051 30.047"/><ellipse stroke="#000" cx="118.225" cy="-182.795" rx="4" ry="4"/></g><g class="edge"><title>Spark SQL-&amp;gt;SDB</title><path fill="none" stroke="red" d="M125.084-359.697c-.795 7.714-1.022 16.985-.679 25.585"/><path fill="red" stroke="red" d="M127.898-334.324l-2.793 10.22-4.19-9.732 6.983-.488z"/></g><g class="node"><title>Master Cloud Node</title><path fill="#b0c4de" stroke="#b0c4de" d="M126.314-36H-.314V0h126.628v-36z"/><text text-anchor="middle" x="63" y="-13.8" font-family="Times,serif" font-size="14">Master Cloud Node</text></g><g class="edge"><title>Spark Core-&amp;gt;Master Cloud Node</title><path fill="none" stroke="#000" d="M57.084-71.697c-.857 8.308-1.053 18.42-.59 27.556"/><ellipse stroke="#000" cx="56.802" cy="-40.093" rx="4" ry="4"/></g><g class="edge"><title>Spark Core-&amp;gt;Master Cloud Node</title><path fill="none" stroke="red" d="M68.916-71.697c.795 7.714 1.022 16.985.68 25.585"/><path fill="red" stroke="red" d="M73.085-45.836l-4.19 9.732-2.793-10.22 6.983.488z"/></g><g class="edge"><title>MLLib-&amp;gt;Spark Core</title><path fill="none" stroke="#000" d="M63-143.697v27.556"/><ellipse stroke="#000" cx="63" cy="-112.104" rx="4" ry="4"/></g><g class="edge"><title>GraphX-&amp;gt;Spark Core</title><path fill="none" stroke="#000" d="M120.966-143.697l-33.05 30.047"/><ellipse stroke="#000" cx="84.775" cy="-110.795" rx="4" ry="4"/></g></g></svg>