<svg width="632pt" height="428" viewBox="0.00 0.00 632.31 321.13" xmlns="http://www.w3.org/2000/svg"><g class="graph" transform="translate(4 317.13)"><title>%3</title><path fill="#fff" d="M-4 4v-321.13h632.308V4H-4z"/><g class="node"><title>Worker 1</title><path fill="#add8e6" stroke="#add8e6" d="M162.528-36H93.026V0h69.502v-36z"/><text text-anchor="middle" x="127.777" y="-13.8" font-family="Times,serif" font-size="14">Worker 1</text></g><g class="node"><title>Worker 2</title><path fill="#add8e6" stroke="#add8e6" d="M162.528-313.13H93.026v36h69.502v-36z"/><text text-anchor="middle" x="127.777" y="-290.93" font-family="Times,serif" font-size="14">Worker 2</text></g><g class="node"><title>Worker 3</title><path fill="#add8e6" stroke="#add8e6" d="M322.529-36h-69.502V0h69.502v-36z"/><text text-anchor="middle" x="287.778" y="-13.8" font-family="Times,serif" font-size="14">Worker 3</text></g><g class="node"><title>Worker 4</title><path fill="#add8e6" stroke="#add8e6" d="M322.529-313.13h-69.502v36h69.502v-36z"/><text text-anchor="middle" x="287.778" y="-290.93" font-family="Times,serif" font-size="14">Worker 4</text></g><g class="node"><title>Storage 1</title><ellipse fill="pink" stroke="pink" cx="47.776" cy="-156.565" rx="47.554" ry="18"/><text text-anchor="middle" x="47.776" y="-152.365" font-family="Times,serif" font-size="14">Storage 1</text></g><g class="edge"><title>Storage 1-&amp;gt;Worker 1</title><path fill="none" stroke="gray" d="M68.824-140.254c18.64 23.315 43.323 65.9 54.711 94.257"/><path fill="gray" stroke="gray" d="M126.95-46.85l.143 10.594-6.718-8.192 6.575-2.401z"/><text text-anchor="middle" x="92.679" y="-97.326" font-family="Times,serif" font-size="14">0</text></g><g class="edge"><title>Storage 1-&amp;gt;Worker 1</title><path fill="none" stroke="gray" d="M48.39-138.529c7.71 24.168 31.048 66.656 50.86 94.297"/><path fill="gray" stroke="gray" d="M102.092-46.276l3.173 10.109-8.784-5.924 5.611-4.185z"/><text text-anchor="middle" x="70.32" y="-95.58" font-family="Times,serif" font-size="14">1</text></g><g class="edge"><title>Storage 1-&amp;gt;Worker 1</title><path fill="none" stroke="gray" d="M58.071-138.734l54.126 93.749"/><path fill="gray" stroke="gray" d="M115.299-46.613l1.968 10.41-8.031-6.91 6.063-3.5z"/><text text-anchor="middle" x="81.634" y="-96.059" font-family="Times,serif" font-size="14">2</text></g><g class="edge"><title>Storage 1-&amp;gt;Worker 2</title><path fill="none" stroke="gray" d="M48.39-174.601c7.71-24.168 31.048-66.656 50.86-94.297"/><path fill="gray" stroke="gray" d="M96.48-271.039l8.785-5.924-3.173 10.109-5.611-4.185z"/><text text-anchor="middle" x="70.32" y="-225.95" font-family="Times,serif" font-size="14">3</text></g><g class="edge"><title>Storage 1-&amp;gt;Worker 2</title><path fill="none" stroke="gray" d="M68.824-172.876c18.64-23.315 43.323-65.9 54.711-94.257"/><path fill="gray" stroke="gray" d="M120.375-268.682l6.718-8.192-.143 10.593-6.575-2.401z"/><text text-anchor="middle" x="92.679" y="-224.204" font-family="Times,serif" font-size="14">4</text></g><g class="edge"><title>Storage 1-&amp;gt;Worker 2</title><path fill="none" stroke="gray" d="M58.071-174.396l54.126-93.749"/><path fill="gray" stroke="gray" d="M109.236-270.017l8.031-6.91-1.968 10.41-6.063-3.5z"/><text text-anchor="middle" x="81.634" y="-225.471" font-family="Times,serif" font-size="14">5</text></g><g class="edge"><title>Storage 1-&amp;gt;Worker 3</title><path fill="none" stroke="gray" d="M85.993-145.69C136-122.892 221.86-73.105 263.692-42.45"/><path fill="gray" stroke="gray" d="M266.063-45.045l5.858 8.829-10.085-3.249 4.227-5.58z"/><text text-anchor="middle" x="171.342" y="-98.27" font-family="Times,serif" font-size="14">6</text></g><g class="edge"><title>Storage 1-&amp;gt;Worker 3</title><path fill="none" stroke="gray" d="M62.402-139.326C97.898-110.947 188.7-57.502 243.686-31.6"/><path fill="gray" stroke="gray" d="M245.225-34.745l7.627 7.354-10.548-.992 2.921-6.362z"/><text text-anchor="middle" x="149.544" y="-89.663" font-family="Times,serif" font-size="14">7</text></g><g class="edge"><title>Storage 1-&amp;gt;Worker 3</title><path fill="none" stroke="gray" d="M73.918-141.472L247.55-41.226"/><path fill="gray" stroke="gray" d="M249.463-44.163l6.91 8.031-10.41-1.969 3.5-6.062z"/><text text-anchor="middle" x="157.234" y="-95.549" font-family="Times,serif" font-size="14">8</text></g><g class="edge"><title>Storage 1-&amp;gt;Worker 4</title><path fill="none" stroke="gray" d="M62.402-173.804C97.898-202.183 188.7-255.628 243.686-281.53"/><path fill="gray" stroke="gray" d="M242.304-284.747l10.548-.992-7.627 7.354-2.921-6.362z"/><text text-anchor="middle" x="149.544" y="-231.867" font-family="Times,serif" font-size="14">9</text></g><g class="edge"><title>Storage 1-&amp;gt;Worker 4</title><path fill="none" stroke="gray" d="M85.993-167.44C136-190.238 221.86-240.025 263.692-270.679"/><path fill="gray" stroke="gray" d="M261.836-273.665l10.085-3.249-5.858 8.829-4.227-5.58z"/><text text-anchor="middle" x="167.842" y="-223.26" font-family="Times,serif" font-size="14">10</text></g><g class="edge"><title>Storage 1-&amp;gt;Worker 4</title><path fill="none" stroke="gray" d="M73.918-171.658L247.55-271.904"/><path fill="gray" stroke="gray" d="M245.963-275.029l10.41-1.969-6.91 8.031-3.5-6.062z"/><text text-anchor="middle" x="153.734" y="-209.181" font-family="Times,serif" font-size="14">11</text></g><g class="node"><title>user</title><ellipse fill="none" stroke="purple" cx="595.043" cy="-156.565" rx="29.032" ry="29.032"/><text text-anchor="middle" x="595.043" y="-152.365" font-family="Times,serif" font-size="14">User</text></g><g class="node"><title>driver</title><path fill="lightgray" stroke="lightgray" d="M493.778-174.565h-54v36h54v-36z"/><text text-anchor="middle" x="466.778" y="-152.365" font-family="Times,serif" font-size="14">Driver</text></g><g class="edge"><title>user-&amp;gt;driver</title><path fill="none" stroke="#000" d="M565.617-156.565h-61.619"/><path stroke="#000" d="M503.88-153.065l-10-3.5 10-3.5v7z"/></g><g class="node"><title>master</title><path fill="#90ee90" stroke="#90ee90" d="M411.97-174.565h-88.383v36h88.383v-36z"/><text text-anchor="middle" x="367.778" y="-152.365" font-family="Times,serif" font-size="14">Master Node</text></g><g class="edge"><title>driver-&amp;gt;master</title><path fill="none" stroke="#000" d="M439.726-156.565h-17.299"/><path stroke="#000" d="M422.319-153.065l-10-3.5 10-3.5v7z"/></g><g class="edge"><title>master-&amp;gt;Worker 1</title><path fill="none" stroke="gray" d="M336.402-138.45L166.171-40.167"/><ellipse fill="gray" stroke="gray" cx="162.625" cy="-38.119" rx="4" ry="4"/><text text-anchor="middle" x="215.718" y="-110.308" font-family="Times,serif" font-size="14">Read Image:</text><text text-anchor="middle" x="215.718" y="-93.508" font-family="Times,serif" font-size="14">0 to 2</text></g><g class="edge"><title>master-&amp;gt;Worker 2</title><path fill="none" stroke="gray" d="M336.402-174.68l-170.231-98.283"/><ellipse fill="gray" stroke="gray" cx="162.625" cy="-275.011" rx="4" ry="4"/><text text-anchor="middle" x="215.718" y="-244.822" font-family="Times,serif" font-size="14">Read Image:</text><text text-anchor="middle" x="215.718" y="-228.022" font-family="Times,serif" font-size="14">3 to 5</text></g><g class="edge"><title>master-&amp;gt;Worker 3</title><path fill="none" stroke="gray" d="M357.32-138.45l-55.058 95.362"/><ellipse fill="gray" stroke="gray" cx="300.239" cy="-39.584" rx="4" ry="4"/><text text-anchor="middle" x="294.223" y="-111.769" font-family="Times,serif" font-size="14">Read Image:</text><text text-anchor="middle" x="294.223" y="-94.969" font-family="Times,serif" font-size="14">6 to 8</text></g><g class="edge"><title>master-&amp;gt;Worker 4</title><path fill="none" stroke="gray" d="M357.32-174.68l-55.058-95.362"/><ellipse fill="gray" stroke="gray" cx="300.239" cy="-273.546" rx="4" ry="4"/><text text-anchor="middle" x="294.223" y="-243.361" font-family="Times,serif" font-size="14">Read Image:</text><text text-anchor="middle" x="294.223" y="-226.561" font-family="Times,serif" font-size="14">9 to 11</text></g></g></svg>