<svg width="664" height="840" viewBox="0.00 0.00 498.00 630.00" xmlns="http://www.w3.org/2000/svg"><g class="graph" transform="translate(4 626)"><title>%3</title><path fill="#fff" d="M-4 4v-630h498V4H-4z"/><g class="node"><title>xscan</title><path fill="lightgray" stroke="lightgray" d="M488.902-622h-79.804v36h79.804v-36z"/><text text-anchor="middle" x="449" y="-599.8" font-family="Times,serif" font-size="14">for x in [...]</text></g><g class="node"><title>yscan</title><path fill="lightgray" stroke="lightgray" d="M454.902-550h-79.804v36h79.804v-36z"/><text text-anchor="middle" x="415" y="-527.8" font-family="Times,serif" font-size="14">for y in [...]</text></g><g class="edge"><title>xscan-&amp;gt;yscan</title><path fill="none" stroke="#000" d="M440.596-585.697l-12.839 26.433"/><path stroke="#000" d="M430.825-557.57l-7.517 7.466 1.221-10.525 6.296 3.059z"/></g><g class="node"><title>zscan</title><path fill="lightgray" stroke="lightgray" d="M398.312-478h-78.624v36h78.624v-36z"/><text text-anchor="middle" x="359" y="-455.8" font-family="Times,serif" font-size="14">for z in [...]</text></g><g class="edge"><title>yscan-&amp;gt;zscan</title><path fill="none" stroke="#000" d="M401.157-513.697l-22.044 27.556"/><path stroke="#000" d="M381.664-483.727l-8.981 5.623 3.514-9.995 5.467 4.372z"/></g><g class="node"><title>iscan</title><path fill="lightgray" stroke="lightgray" d="M269.94-406H164.06v36h105.88v-36z"/><text text-anchor="middle" x="217" y="-383.8" font-family="Times,serif" font-size="14">for ix in [-1,0,1]</text></g><g class="edge"><title>zscan-&amp;gt;iscan</title><path fill="none" stroke="#000" d="M324.263-441.876l-63.31 31.209"/><path stroke="#000" d="M262.388-407.472l-10.517 1.282 7.421-7.561 3.096 6.279z"/></g><g class="node"><title>imagea</title><ellipse fill="#b0c4de" stroke="#b0c4de" cx="312" cy="-316" rx="66.214" ry="18"/><text text-anchor="middle" x="312" y="-311.8" font-family="Times,serif" font-size="14">Load Image A</text></g><g class="edge"><title>zscan-&amp;gt;imagea</title><path fill="none" stroke="#000" d="M353.331-441.871l-32.39 97.858"/><path stroke="#000" d="M324.154-342.583l-6.465 8.394-.18-10.594 6.645 2.2z"/></g><g class="node"><title>jscan</title><path fill="lightgray" stroke="lightgray" d="M188.94-334H83.06v36h105.88v-36z"/><text text-anchor="middle" x="136" y="-311.8" font-family="Times,serif" font-size="14">for iy in [-1,0,1]</text></g><g class="edge"><title>iscan-&amp;gt;jscan</title><path fill="none" stroke="#000" d="M196.978-369.697l-33.496 28.947"/><path stroke="#000" d="M165.647-337.995l-9.855 3.891 5.278-9.187 4.577 5.296z"/></g><g class="node"><title>kscan</title><path fill="lightgray" stroke="lightgray" d="M169.94-262H64.06v36h105.88v-36z"/><text text-anchor="middle" x="117" y="-239.8" font-family="Times,serif" font-size="14">for ix in [-1,0,1]</text></g><g class="edge"><title>jscan-&amp;gt;kscan</title><path fill="none" stroke="#000" d="M131.303-297.697l-7.021 25.868"/><path stroke="#000" d="M127.64-270.838l-5.997 8.734-.759-10.568 6.756 1.834z"/></g><g class="node"><title>imageb</title><ellipse fill="#b0c4de" stroke="#b0c4de" cx="66" cy="-172" rx="65.917" ry="18"/><text text-anchor="middle" x="66" y="-167.8" font-family="Times,serif" font-size="14">Load Image B</text></g><g class="edge"><title>kscan-&amp;gt;imageb</title><path fill="none" stroke="#000" d="M104.393-225.697l-19.872 27.276"/><path stroke="#000" d="M87.18-196.126l-8.718 6.022 3.06-10.144 5.657 4.122z"/></g><g class="node"><title>overlap</title><path fill="pink" stroke="pink" d="M264-117.663l-97.089 87.994h194.178L264-117.662z"/><text text-anchor="middle" x="264" y="-63.2" font-family="Times,serif" font-size="14">Calculate</text><text text-anchor="middle" x="264" y="-46.4" font-family="Times,serif" font-size="14">Overlap</text></g><g class="edge"><title>overlap-&amp;gt;xscan</title><path fill="none" stroke="red" stroke-dasharray="5,2" d="M310.712-75.33C375.03-99.724 483-153.938 483-243v-218c0-41.991-14.236-89.095-24.284-117.113"/><ellipse fill="red" stroke="red" cx="457.26" cy="-582.075" rx="4" ry="4"/></g><g class="edge"><title>overlap-&amp;gt;yscan</title><path fill="none" stroke="red" stroke-dasharray="5,2" d="M306.436-79.642C359.935-107.673 445-164.576 445-243v-146c0-41.738-12.561-88.916-21.427-117.019"/><ellipse fill="red" stroke="red" cx="422.301" cy="-509.953" rx="4" ry="4"/></g><g class="edge"><title>overlap-&amp;gt;zscan</title><path fill="none" stroke="red" stroke-dasharray="5,2" d="M300.826-84.324C343.196-115.563 407-174.052 407-243v-74c0-43.054-20.048-89.768-34.231-117.428"/><ellipse fill="red" stroke="red" cx="370.806" cy="-438.165" rx="4" ry="4"/></g><g class="edge"><title>overlap-&amp;gt;iscan</title><path fill="none" stroke="red" stroke-dasharray="5,2" d="M256.666-111.027l-36.064-250.911"/><ellipse fill="red" stroke="red" cx="220.03" cy="-365.92" rx="4" ry="4"/></g><g class="edge"><title>overlap-&amp;gt;jscan</title><path fill="none" stroke="red" stroke-dasharray="5,2" d="M245.231-101.02C237.838-117.429 229.37-136.546 222-154c-20.098-47.595-16.87-63.43-43-108-6.076-10.364-14.084-20.832-21.541-29.696"/><ellipse fill="red" stroke="red" cx="154.774" cy="-294.813" rx="4" ry="4"/></g><g class="edge"><title>overlap-&amp;gt;kscan</title><path fill="none" stroke="red" stroke-dasharray="5,2" d="M235.747-92.226C220.209-110.19 200.743-133.091 184-154c-17.289-21.591-36.171-46.834-49.471-64.911"/><ellipse fill="red" stroke="red" cx="131.911" cy="-222.48" rx="4" ry="4"/></g><g class="edge"><title>imagea-&amp;gt;overlap</title><path fill="none" stroke="#000" d="M308.776-297.873l-33.57 178.342"/><path stroke="#000" d="M278.586-118.569l-5.289 9.18-1.59-10.475 6.879 1.295z"/></g><g class="edge"><title>imageb-&amp;gt;overlap</title><path fill="none" stroke="#000" d="M93.531-155.566l121.94 68.36"/><path stroke="#000" d="M217.396-90.139l7.012 7.943-10.435-1.837 3.423-6.106z"/></g></g></svg>