<svg width="632pt" height="428" viewBox="0.00 0.00 632.31 321.13" xmlns="http://www.w3.org/2000/svg"><g class="graph" transform="translate(4 317.13)"><title>%3</title><path fill="#fff" d="M-4 4v-321.13h632.308V4H-4z"/><g class="node"><title>Worker 1</title><path fill="#add8e6" stroke="#add8e6" d="M162.528-36H93.026V0h69.502v-36z"/><text text-anchor="middle" x="127.777" y="-13.8" font-family="Times,serif" font-size="14">Worker 1</text></g><g class="node"><title>Storage 1</title><ellipse fill="pink" stroke="pink" cx="47.776" cy="-156.565" rx="47.554" ry="18"/><text text-anchor="middle" x="47.776" y="-152.365" font-family="Times,serif" font-size="14">Storage 1</text></g><g class="edge"><title>Worker 1-&amp;gt;Storage 1</title><path fill="none" stroke="gray" d="M117.318-36.115l-55.32-95.817"/><ellipse fill="gray" stroke="gray" cx="59.985" cy="-135.42" rx="4" ry="4"/></g><g class="node"><title>Worker 2</title><path fill="#add8e6" stroke="#add8e6" d="M162.528-313.13H93.026v36h69.502v-36z"/><text text-anchor="middle" x="127.777" y="-290.93" font-family="Times,serif" font-size="14">Worker 2</text></g><g class="edge"><title>Worker 2-&amp;gt;Storage 1</title><path fill="none" stroke="gray" d="M117.318-277.015l-55.32 95.817"/><ellipse fill="gray" stroke="gray" cx="59.985" cy="-177.71" rx="4" ry="4"/></g><g class="node"><title>Worker 3</title><path fill="#add8e6" stroke="#add8e6" d="M322.529-36h-69.502V0h69.502v-36z"/><text text-anchor="middle" x="287.778" y="-13.8" font-family="Times,serif" font-size="14">Worker 3</text></g><g class="edge"><title>Worker 3-&amp;gt;Storage 1</title><path fill="none" stroke="gray" d="M256.402-36.115L81.125-137.311"/><ellipse fill="gray" stroke="gray" cx="77.468" cy="-139.423" rx="4" ry="4"/></g><g class="node"><title>Worker 4</title><path fill="#add8e6" stroke="#add8e6" d="M322.529-313.13h-69.502v36h69.502v-36z"/><text text-anchor="middle" x="287.778" y="-290.93" font-family="Times,serif" font-size="14">Worker 4</text></g><g class="edge"><title>Worker 4-&amp;gt;Storage 1</title><path fill="none" stroke="gray" d="M256.402-277.015L81.125-175.819"/><ellipse fill="gray" stroke="gray" cx="77.468" cy="-173.707" rx="4" ry="4"/></g><g class="node"><title>user</title><ellipse fill="none" stroke="purple" cx="595.043" cy="-156.565" rx="29.032" ry="29.032"/><text text-anchor="middle" x="595.043" y="-152.365" font-family="Times,serif" font-size="14">User</text></g><g class="node"><title>driver</title><path fill="lightgray" stroke="lightgray" d="M493.778-174.565h-54v36h54v-36z"/><text text-anchor="middle" x="466.778" y="-152.365" font-family="Times,serif" font-size="14">Driver</text></g><g class="edge"><title>user-&amp;gt;driver</title><path fill="none" stroke="#000" d="M565.617-156.565h-61.619"/><path stroke="#000" d="M503.88-153.065l-10-3.5 10-3.5v7z"/></g><g class="node"><title>master</title><path fill="#90ee90" stroke="#90ee90" d="M411.97-174.565h-88.383v36h88.383v-36z"/><text text-anchor="middle" x="367.778" y="-152.365" font-family="Times,serif" font-size="14">Master Node</text></g><g class="edge"><title>driver-&amp;gt;master</title><path fill="none" stroke="#000" d="M439.726-156.565h-17.299"/><path stroke="#000" d="M422.319-153.065l-10-3.5 10-3.5v7z"/></g><g class="edge"><title>master-&amp;gt;Worker 1</title><path fill="none" stroke="gray" d="M336.402-138.45L166.171-40.167"/><ellipse fill="gray" stroke="gray" cx="162.625" cy="-38.119" rx="4" ry="4"/><text text-anchor="middle" x="215.718" y="-110.308" font-family="Times,serif" font-size="14">Read Image:</text><text text-anchor="middle" x="215.718" y="-93.508" font-family="Times,serif" font-size="14">0 to 2</text></g><g class="edge"><title>master-&amp;gt;Worker 2</title><path fill="none" stroke="gray" d="M336.402-174.68l-170.231-98.283"/><ellipse fill="gray" stroke="gray" cx="162.625" cy="-275.011" rx="4" ry="4"/><text text-anchor="middle" x="215.718" y="-244.822" font-family="Times,serif" font-size="14">Read Image:</text><text text-anchor="middle" x="215.718" y="-228.022" font-family="Times,serif" font-size="14">3 to 5</text></g><g class="edge"><title>master-&amp;gt;Worker 3</title><path fill="none" stroke="gray" d="M357.32-138.45l-55.058 95.362"/><ellipse fill="gray" stroke="gray" cx="300.239" cy="-39.584" rx="4" ry="4"/><text text-anchor="middle" x="294.223" y="-111.769" font-family="Times,serif" font-size="14">Read Image:</text><text text-anchor="middle" x="294.223" y="-94.969" font-family="Times,serif" font-size="14">6 to 8</text></g><g class="edge"><title>master-&amp;gt;Worker 4</title><path fill="none" stroke="gray" d="M357.32-174.68l-55.058-95.362"/><ellipse fill="gray" stroke="gray" cx="300.239" cy="-273.546" rx="4" ry="4"/><text text-anchor="middle" x="294.223" y="-243.361" font-family="Times,serif" font-size="14">Read Image:</text><text text-anchor="middle" x="294.223" y="-226.561" font-family="Times,serif" font-size="14">9 to 11</text></g></g></svg>