<svg width="337pt" height="356pt" viewBox="0.00 0.00 337.00 356.00" xmlns="http://www.w3.org/2000/svg"><g class="graph" transform="translate(4 352)"><title>%3</title><path fill="#fff" d="M-4 4v-356h337V4H-4z"/><g class="node"><title>Worker 1</title><path fill="#add8e6" stroke="#add8e6" d="M68.437-108H-.437v36h68.874v-36z"/><text text-anchor="middle" x="34" y="-85.8" font-family="Times,serif" font-size="14">Worker 1</text></g><g class="node"><title>Storage 1</title><ellipse fill="pink" stroke="pink" cx="164" cy="-18" rx="47.167" ry="18"/><text text-anchor="middle" x="164" y="-13.8" font-family="Times,serif" font-size="14">Storage 1</text></g><g class="edge"><title>Worker 1-&amp;gt;Storage 1</title><path fill="none" stroke="gray" d="M65.802-71.876l64.875 34.933"/><ellipse fill="gray" stroke="gray" cx="134.25" cy="-35.019" rx="4" ry="4"/></g><g class="node"><title>Worker 2</title><path fill="#add8e6" stroke="#add8e6" d="M155.437-108H86.563v36h68.874v-36z"/><text text-anchor="middle" x="121" y="-85.8" font-family="Times,serif" font-size="14">Worker 2</text></g><g class="edge"><title>Worker 2-&amp;gt;Storage 1</title><path fill="none" stroke="gray" d="M131.629-71.697l17.87 29.091"/><ellipse fill="gray" stroke="gray" cx="151.695" cy="-39.031" rx="4" ry="4"/></g><g class="node"><title>Worker 3</title><path fill="#add8e6" stroke="#add8e6" d="M242.437-108h-68.874v36h68.874v-36z"/><text text-anchor="middle" x="208" y="-85.8" font-family="Times,serif" font-size="14">Worker 3</text></g><g class="edge"><title>Worker 3-&amp;gt;Storage 1</title><path fill="none" stroke="gray" d="M197.124-71.697l-18.286 29.091"/><ellipse fill="gray" stroke="gray" cx="176.577" cy="-39.009" rx="4" ry="4"/></g><g class="node"><title>Worker 4</title><path fill="#add8e6" stroke="#add8e6" d="M329.437-108h-68.874v36h68.874v-36z"/><text text-anchor="middle" x="295" y="-85.8" font-family="Times,serif" font-size="14">Worker 4</text></g><g class="edge"><title>Worker 4-&amp;gt;Storage 1</title><path fill="none" stroke="gray" d="M262.954-71.876l-65.375 34.933"/><ellipse fill="gray" stroke="gray" cx="193.958" cy="-35.008" rx="4" ry="4"/></g><g class="node"><title>user</title><ellipse fill="none" stroke="purple" cx="164" cy="-318" rx="28.9" ry="29.032"/><text text-anchor="middle" x="164" y="-313.8" font-family="Times,serif" font-size="14">User</text></g><g class="node"><title>driver</title><path fill="lightgray" stroke="lightgray" d="M191-252h-54v36h54v-36z"/><text text-anchor="middle" x="164" y="-229.8" font-family="Times,serif" font-size="14">Driver</text></g><g class="edge"><title>user-&amp;gt;driver</title><path fill="none" stroke="#000" d="M164-288.32v26.009"/><path stroke="#000" d="M167.5-262.309l-3.5 10-3.5-10h7z"/></g><g class="node"><title>master</title><path fill="#90ee90" stroke="#90ee90" d="M208.019-180h-88.038v36h88.038v-36z"/><text text-anchor="middle" x="164" y="-157.8" font-family="Times,serif" font-size="14">Master Node</text></g><g class="edge"><title>driver-&amp;gt;master</title><path fill="none" stroke="#000" d="M164-215.697v25.585"/><path stroke="#000" d="M167.5-190.104l-3.5 10-3.5-10h7z"/></g><g class="edge"><title>master-&amp;gt;Worker 1</title><path fill="none" stroke="gray" d="M132.198-143.876l-58.964 31.75"/><ellipse fill="gray" stroke="gray" cx="69.446" cy="-110.086" rx="4" ry="4"/></g><g class="edge"><title>master-&amp;gt;Worker 2</title><path fill="none" stroke="gray" d="M153.371-143.697l-17.612 28.67"/><ellipse fill="gray" stroke="gray" cx="133.601" cy="-111.513" rx="4" ry="4"/></g><g class="edge"><title>master-&amp;gt;Worker 3</title><path fill="none" stroke="gray" d="M174.876-143.697l18.021 28.67"/><ellipse fill="gray" stroke="gray" cx="195.12" cy="-111.491" rx="4" ry="4"/></g><g class="edge"><title>master-&amp;gt;Worker 4</title><path fill="none" stroke="gray" d="M196.046-143.876l59.67 31.885"/><ellipse fill="gray" stroke="gray" cx="259.303" cy="-110.075" rx="4" ry="4"/></g></g></svg>