<svg width="532pt" height="1032" viewBox="0.00 0.00 532.00 774.00" xmlns="http://www.w3.org/2000/svg"><g class="graph" transform="translate(4 770)"><title>%3</title><path fill="#fff" d="M-4 4v-774h532V4H-4z"/><g class="node"><title>xscan</title><path fill="lightgray" stroke="lightgray" d="M522.902-766h-79.804v36h79.804v-36z"/><text text-anchor="middle" x="483" y="-743.8" font-family="Times,serif" font-size="14">for x in [...]</text></g><g class="node"><title>yscan</title><path fill="lightgray" stroke="lightgray" d="M454.902-694h-79.804v36h79.804v-36z"/><text text-anchor="middle" x="415" y="-671.8" font-family="Times,serif" font-size="14">for y in [...]</text></g><g class="edge"><title>xscan-&amp;gt;yscan</title><path fill="none" stroke="#000" d="M466.191-729.697l-27.581 28.393"/><path stroke="#000" d="M441.094-698.838l-9.478 4.734 4.457-9.612 5.021 4.878z"/></g><g class="node"><title>zscan</title><path fill="lightgray" stroke="lightgray" d="M398.312-622h-78.624v36h78.624v-36z"/><text text-anchor="middle" x="359" y="-599.8" font-family="Times,serif" font-size="14">for z in [...]</text></g><g class="edge"><title>yscan-&amp;gt;zscan</title><path fill="none" stroke="#000" d="M401.157-657.697l-22.044 27.556"/><path stroke="#000" d="M381.664-627.727l-8.981 5.623 3.514-9.995 5.467 4.372z"/></g><g class="node"><title>iscan</title><path fill="lightgray" stroke="lightgray" d="M269.94-550H164.06v36h105.88v-36z"/><text text-anchor="middle" x="217" y="-527.8" font-family="Times,serif" font-size="14">for ix in [-1,0,1]</text></g><g class="edge"><title>zscan-&amp;gt;iscan</title><path fill="none" stroke="#000" d="M324.263-585.876l-63.31 31.209"/><path stroke="#000" d="M262.388-551.472l-10.517 1.282 7.421-7.561 3.096 6.279z"/></g><g class="node"><title>imagea</title><ellipse fill="#b0c4de" stroke="#b0c4de" cx="312" cy="-460" rx="66.214" ry="18"/><text text-anchor="middle" x="312" y="-455.8" font-family="Times,serif" font-size="14">Load Image A</text></g><g class="edge"><title>zscan-&amp;gt;imagea</title><path fill="none" stroke="#000" d="M353.331-585.871l-32.39 97.858"/><path stroke="#000" d="M324.154-486.583l-6.465 8.394-.18-10.594 6.645 2.2z"/></g><g class="node"><title>jscan</title><path fill="lightgray" stroke="lightgray" d="M188.94-478H83.06v36h105.88v-36z"/><text text-anchor="middle" x="136" y="-455.8" font-family="Times,serif" font-size="14">for iy in [-1,0,1]</text></g><g class="edge"><title>iscan-&amp;gt;jscan</title><path fill="none" stroke="#000" d="M196.978-513.697l-33.496 28.947"/><path stroke="#000" d="M165.647-481.995l-9.855 3.891 5.278-9.187 4.577 5.296z"/></g><g class="node"><title>kscan</title><path fill="lightgray" stroke="lightgray" d="M169.94-406H64.06v36h105.88v-36z"/><text text-anchor="middle" x="117" y="-383.8" font-family="Times,serif" font-size="14">for ix in [-1,0,1]</text></g><g class="edge"><title>jscan-&amp;gt;kscan</title><path fill="none" stroke="#000" d="M131.303-441.697l-7.021 25.868"/><path stroke="#000" d="M127.64-414.838l-5.997 8.734-.759-10.568 6.756 1.834z"/></g><g class="node"><title>imageb</title><ellipse fill="#b0c4de" stroke="#b0c4de" cx="66" cy="-316" rx="65.917" ry="18"/><text text-anchor="middle" x="66" y="-311.8" font-family="Times,serif" font-size="14">Load Image B</text></g><g class="edge"><title>kscan-&amp;gt;imageb</title><path fill="none" stroke="#000" d="M104.393-369.697l-19.872 27.276"/><path stroke="#000" d="M87.18-340.126l-8.718 6.022 3.06-10.144 5.657 4.122z"/></g><g class="node"><title>overlap</title><path fill="pink" stroke="pink" d="M312-261.663l-97.089 87.995h194.178L312-261.663z"/><text text-anchor="middle" x="312" y="-207.2" font-family="Times,serif" font-size="14">Calculate</text><text text-anchor="middle" x="312" y="-190.4" font-family="Times,serif" font-size="14">Overlap</text></g><g class="edge"><title>overlap-&amp;gt;xscan</title><path fill="none" stroke="red" stroke-dasharray="5,2" d="M352.959-224.762C403.548-253.66 483-311.123 483-387v-218-116.782"/><ellipse fill="red" stroke="red" cx="483" cy="-725.951" rx="4" ry="4"/></g><g class="edge"><title>overlap-&amp;gt;yscan</title><path fill="none" stroke="red" stroke-dasharray="5,2" d="M347.292-229.759C386.694-261.787 445-320.428 445-387v-146c0-41.738-12.561-88.916-21.427-117.019"/><ellipse fill="red" stroke="red" cx="422.301" cy="-653.953" rx="4" ry="4"/></g><g class="edge"><title>overlap-&amp;gt;zscan</title><path fill="none" stroke="red" stroke-dasharray="5,2" d="M340.761-236.124C368.722-270.773 407-328.83 407-387v-74c0-43.054-20.048-89.768-34.231-117.428"/><ellipse fill="red" stroke="red" cx="370.806" cy="-582.165" rx="4" ry="4"/></g><g class="edge"><title>overlap-&amp;gt;iscan</title><path fill="none" stroke="red" stroke-dasharray="5,2" d="M296.536-247.918C280.161-295.389 254.212-373.46 236-442c-5.649-21.258-10.773-45.716-14.272-63.607"/><ellipse fill="red" stroke="red" cx="220.902" cy="-509.891" rx="4" ry="4"/></g><g class="edge"><title>overlap-&amp;gt;jscan</title><path fill="none" stroke="red" stroke-dasharray="5,2" d="M279.163-232.347C260.489-249.805 237.759-273.483 222-298c-27.936-43.461-16.87-63.43-43-108-6.076-10.364-14.084-20.832-21.541-29.696"/><ellipse fill="red" stroke="red" cx="154.774" cy="-438.813" rx="4" ry="4"/></g><g class="edge"><title>overlap-&amp;gt;kscan</title><path fill="none" stroke="red" stroke-dasharray="5,2" d="M274.171-227.51C247.418-245.117 211.553-270.772 184-298c-20.038-19.802-38.965-45.884-51.558-64.688"/><ellipse fill="red" stroke="red" cx="129.978" cy="-366.422" rx="4" ry="4"/></g><g class="node"><title>update</title><path fill="lightgray" stroke="lightgray" d="M428.262-108H327.738v36h100.524v-36z"/><text text-anchor="middle" x="378" y="-85.8" font-family="Times,serif" font-size="14">Update Offsets</text></g><g class="edge"><title>overlap-&amp;gt;update</title><path fill="none" stroke="#000" d="M328.997-173.415l33.609 56.525"/><path stroke="#000" d="M365.742-118.464l2.103 10.384-8.12-6.806 6.017-3.578z"/></g><g class="edge"><title>imagea-&amp;gt;overlap</title><path fill="none" stroke="#000" d="M312-441.873v170"/><path stroke="#000" d="M315.5-271.759l-3.5 10-3.5-10.001 7 .001z"/></g><g class="edge"><title>imageb-&amp;gt;overlap</title><path fill="none" stroke="#000" d="M98.667-300.26l161.478 72.862"/><path stroke="#000" d="M261.597-230.582l7.676 7.303-10.555-.923 2.879-6.38z"/></g><g class="node"><title>nscan</title><path fill="none" stroke="green" stroke-width="2" d="M502.976-36H395.024V0h107.952v-36z"/><text text-anchor="middle" x="449" y="-13.8" font-family="Times,serif" font-size="14">while(offsets&amp;gt;0)</text></g><g class="edge"><title>nscan-&amp;gt;xscan</title><path fill="none" stroke="#000" d="M460.889-36.284C481.339-67.748 521-137.13 521-202v-403c0-41.367-15.235-87.278-26.412-115.395"/><path stroke="#000" d="M491.244-719.327l-.554-10.58 7.031 7.926-6.477 2.654z"/></g><g class="edge"><title>update-&amp;gt;nscan</title><path fill="none" stroke="#000" d="M395.551-71.697l28.797 28.393"/><path stroke="#000" d="M426.988-45.617l4.663 9.513-9.578-4.529 4.915-4.984z"/></g></g></svg>