<svg width="443pt" height="355pt" viewBox="0.00 0.00 443.45 355.38" xmlns="http://www.w3.org/2000/svg"><g class="graph" transform="translate(4 351.384)"><title>%3</title><path fill="#fff" d="M-4 4v-355.384h443.454V4H-4z"/><g class="node"><title>cam</title><ellipse fill="pink" stroke="pink" cx="135.379" cy="-329.384" rx="45.205" ry="18"/><text text-anchor="middle" x="135.379" y="-325.184" font-family="Times,serif" font-size="14">Webcam</text></g><g class="node"><title>spark</title><ellipse fill="#90ee90" stroke="#90ee90" cx="133.137" cy="-250.598" rx="52.007" ry="29.331"/><text text-anchor="middle" x="133.137" y="-254.798" font-family="Times,serif" font-size="14">Spark</text><text text-anchor="middle" x="133.137" y="-237.998" font-family="Times,serif" font-size="14">Streaming</text></g><g class="edge"><title>cam-&amp;gt;spark</title><path fill="none" stroke="#000" d="M134.859-311.111l-.591 20.749"/><path stroke="#000" d="M137.762-290.083l-3.783 9.896-3.214-10.096 6.997.2z"/></g><g class="node"><title>filter</title><ellipse fill="lightgray" stroke="lightgray" cx="151.263" cy="-166.98" rx="63.74" ry="18"/><text text-anchor="middle" x="151.263" y="-162.78" font-family="Times,serif" font-size="14">Median Filter</text></g><g class="edge"><title>spark-&amp;gt;filter</title><path fill="none" stroke="#000" d="M139.476-221.352l5.725 26.408"/><path stroke="#000" d="M148.632-195.639l-1.302 10.515-5.539-9.032 6.841-1.483z"/></g><g class="node"><title>group</title><ellipse fill="#90ee90" stroke="#90ee90" cx="46.225" cy="-110.213" rx="46.452" ry="29.331"/><text text-anchor="middle" x="46.225" y="-114.413" font-family="Times,serif" font-size="14">Group</text><text text-anchor="middle" x="46.225" y="-97.613" font-family="Times,serif" font-size="14">Every 3s</text></g><g class="edge"><title>filter-&amp;gt;group</title><path fill="none" stroke="#000" d="M121.724-151.016L90.58-134.185"/><path stroke="#000" d="M91.96-130.952l-10.46 1.675 7.132-7.833 3.329 6.158z"/></g><g class="node"><title>subtract</title><ellipse fill="lightgray" stroke="lightgray" cx="264.917" cy="-64.671" rx="43.436" ry="18"/><text text-anchor="middle" x="264.917" y="-60.471" font-family="Times,serif" font-size="14">Subtract</text></g><g class="edge"><title>filter-&amp;gt;subtract</title><path fill="none" stroke="#000" d="M170.543-149.625l68.573 61.728"/><path stroke="#000" d="M241.581-90.386l5.091 9.291-9.774-4.089 4.683-5.203z"/></g><g class="node"><title>average</title><ellipse fill="lightgray" stroke="lightgray" cx="140.247" cy="-29.416" rx="44.677" ry="29.331"/><text text-anchor="middle" x="140.247" y="-33.616" font-family="Times,serif" font-size="14">Average</text><text text-anchor="middle" x="140.247" y="-16.816" font-family="Times,serif" font-size="14">Images</text></g><g class="edge"><title>group-&amp;gt;average</title><path fill="none" stroke="#000" d="M73.926-86.408l31.143 26.762"/><path stroke="#000" d="M107.441-62.222l5.303 9.172-9.865-3.863 4.562-5.31z"/></g><g class="edge"><title>average-&amp;gt;subtract</title><path fill="none" stroke="#000" d="M181.76-41.155l37.628-10.641"/><path stroke="#000" d="M218.439-55.165l10.575.647-8.67 6.09-1.905-6.737z"/></g><g class="node"><title>mean</title><ellipse fill="lightgray" stroke="lightgray" cx="302.523" cy="-241.406" rx="71.807" ry="18"/><text text-anchor="middle" x="302.523" y="-237.206" font-family="Times,serif" font-size="14">Calculate Mean</text></g><g class="edge"><title>subtract-&amp;gt;mean</title><path fill="none" stroke="#000" d="M268.8-82.92l27.731-130.327"/><path stroke="#000" d="M293.157-214.205l5.505-9.053 1.342 10.51-6.847-1.457z"/></g><g class="node"><title>outlier</title><ellipse fill="#90ee90" stroke="#90ee90" cx="392.251" cy="-168.475" rx="43.407" ry="29.331"/><text text-anchor="middle" x="392.251" y="-172.675" font-family="Times,serif" font-size="14">Keep</text><text text-anchor="middle" x="392.251" y="-155.875" font-family="Times,serif" font-size="14">Outliers</text></g><g class="edge"><title>mean-&amp;gt;outlier</title><path fill="none" stroke="#000" d="M323.788-224.123l32.67 26.555"/><path stroke="#000" d="M358.79-200.182l5.553 9.023-9.968-3.591 4.415-5.432z"/></g></g></svg>