<svg width="430pt" height="320pt" viewBox="0.00 0.00 430.21 319.65" xmlns="http://www.w3.org/2000/svg"><g class="graph" transform="translate(4 315.655)"><title>%3</title><path fill="#fff" d="M-4 4v-319.655h430.205V4H-4z"/><g class="node"><title>ImageJ</title><path fill="none" stroke="#000" d="M62.469-259.009H5.615v36H62.47v-36z"/><text text-anchor="middle" x="34.042" y="-236.809" font-family="Times,serif" font-size="14">ImageJ</text></g><g class="node"><title>ShapeAnalysis</title><path fill="none" stroke="#000" d="M245.772-311.655h-99.408v36h99.408v-36z"/><text text-anchor="middle" x="196.068" y="-289.455" font-family="Times,serif" font-size="14">ShapeAnalysis</text></g><g class="edge"><title>ImageJ-&amp;gt;ShapeAnalysis</title><path fill="none" stroke="#000" d="M62.265-250.18l74.414-24.178"/><path stroke="#000" d="M135.658-277.706l10.592.238-8.429 6.419-2.163-6.657z"/></g><g class="node"><title>Paraview</title><path fill="none" stroke="#000" d="M68.126-88.645H-.042v36h68.168v-36z"/><text text-anchor="middle" x="34.042" y="-66.445" font-family="Times,serif" font-size="14">Paraview</text></g><g class="edge"><title>ImageJ-&amp;gt;Paraview</title><path fill="none" stroke="#000" d="M34.042-222.777v123.95"/><path stroke="#000" d="M37.542-98.746l-3.5 10-3.5-10h7z"/></g><g class="node"><title>PythonSummary</title><path fill="none" stroke="#000" d="M251.18-36H140.956V0H251.18v-36z"/><text text-anchor="middle" x="196.068" y="-13.8" font-family="Times,serif" font-size="14">PythonSummary</text></g><g class="edge"><title>ImageJ-&amp;gt;PythonSummary</title><path fill="none" stroke="#000" d="M47.301-222.76l129.56 178.324"/><path stroke="#000" d="M179.806-46.337l3.047 10.148-8.71-6.033 5.663-4.115z"/></g><g class="edge"><title>ShapeAnalysis-&amp;gt;PythonSummary</title><path fill="none" stroke="#000" d="M196.068-275.568v229.384"/><path stroke="#000" d="M199.568-46.153l-3.5 10-3.5-10h7z"/></g><g class="node"><title>MySQL</title><path fill="none" stroke="#000" d="M327.092-173.827h-61.773v36h61.773v-36z"/><text text-anchor="middle" x="296.205" y="-151.627" font-family="Times,serif" font-size="14">MySQL</text></g><g class="edge"><title>ShapeAnalysis-&amp;gt;MySQL</title><path fill="none" stroke="#000" d="M209.159-275.636l67.891 93.443"/><path stroke="#000" d="M280.065-183.998l3.046 10.148-8.71-6.033 5.664-4.115z"/></g><g class="edge"><title>Paraview-&amp;gt;PythonSummary</title><path fill="none" stroke="#000" d="M68.404-59.48l62.603 20.34"/><path stroke="#000" d="M132.29-42.403l8.429 6.419-10.593.238 2.164-6.657z"/></g><g class="edge"><title>Paraview-&amp;gt;MySQL</title><path fill="none" stroke="#000" d="M68.315-81.781l187.092-60.79"/><path stroke="#000" d="M254.599-145.989l10.592.239-8.429 6.419-2.163-6.658z"/></g><g class="edge"><title>PythonSummary-&amp;gt;MySQL</title><path fill="none" stroke="#000" d="M209.159-36.019l67.891-93.443"/><path stroke="#000" d="M274.401-131.772l8.71-6.032-3.046 10.147-5.664-4.115z"/></g><g class="node"><title>R</title><path fill="none" stroke="#000" d="M422.205-173.827h-54v36h54v-36z"/><text text-anchor="middle" x="395.205" y="-151.627" font-family="Times,serif" font-size="14">R</text></g><g class="edge"><title>MySQL-&amp;gt;R</title><path fill="none" stroke="#000" d="M327.258-155.827h30.526"/><path stroke="#000" d="M357.943-159.327l10 3.5-10 3.5v-7z"/></g></g></svg>