<svg width="884" height="535pt" viewBox="0.00 0.00 663.43 534.80" xmlns="http://www.w3.org/2000/svg"><g class="graph" transform="translate(4 530.798)"><title>%3</title><path fill="#fff" d="M-4 4v-534.798h663.433V4H-4z"/><g class="node"><title>Query</title><path fill="red" stroke="red" d="M62.195-504.006h-54v36h54v-36z"/><text text-anchor="middle" x="35.195" y="-481.806" font-family="Times,serif" font-size="14">Query</text></g><g class="node"><title>Spark SQL</title><path fill="#b0c4de" stroke="#b0c4de" d="M210.591-517.122H132.39v36h78.201v-36z"/><text text-anchor="middle" x="171.491" y="-494.922" font-family="Times,serif" font-size="14">Spark SQL</text></g><g class="edge"><title>Query-&amp;gt;Spark SQL</title><path fill="none" stroke="red" d="M62.449-488.629l59.733-5.748"/><path fill="red" stroke="red" d="M121.857-497.862l10.289 2.526-9.618 4.442-.671-6.968z"/></g><g class="node"><title>Private Database</title><path fill="red" stroke="red" d="M110.682-289.621H-.228v36h110.91v-36z"/><text text-anchor="middle" x="55.227" y="-267.421" font-family="Times,serif" font-size="14">Private Database</text></g><g class="node"><title>SDB</title><path fill="#90ee90" stroke="#90ee90" d="M236.388-381.095H94.512v36h141.876v-36z"/><text text-anchor="middle" x="165.45" y="-358.895" font-family="Times,serif" font-size="14">Spark Image Database</text></g><g class="edge"><title>Private Database-&amp;gt;SDB</title><path fill="none" stroke="#000" d="M77.003-289.693l60.088-49.866"/><ellipse stroke="#000" cx="140.641" cy="-342.505" rx="4" ry="4"/></g><g class="node"><title>Worker 1</title><path fill="#add8e6" stroke="#add8e6" d="M351.373-340.964h-69.501v36h69.501v-36z"/><text text-anchor="middle" x="316.622" y="-318.764" font-family="Times,serif" font-size="14">Worker 1</text></g><g class="node"><title>Worker 3</title><path fill="#add8e6" stroke="#add8e6" d="M619.603-354.759h-69.501v36h69.501v-36z"/><text text-anchor="middle" x="584.853" y="-332.559" font-family="Times,serif" font-size="14">Worker 3</text></g><g class="edge"><title>Worker 1-&amp;gt;Worker 3</title><path fill="none" stroke="gray" d="M351.477-334.26c48.286-7.54 135.561-12.308 188.614-10.538"/><path fill="gray" stroke="gray" d="M540.386-348.288l9.837 3.932-10.143 3.061.306-6.993z"/></g><g class="node"><title>Storage 1</title><ellipse fill="pink" stroke="pink" cx="425.715" cy="-294.492" rx="47.554" ry="18"/><text text-anchor="middle" x="425.715" y="-290.292" font-family="Times,serif" font-size="14">Storage 1</text></g><g class="edge"><title>Worker 1-&amp;gt;Storage 1</title><path fill="none" stroke="gray" d="M351.44-313.877l26.989 7.044"/><ellipse fill="gray" stroke="gray" cx="382.429" cy="-305.789" rx="4" ry="4"/></g><g class="node"><title>Storage 3</title><ellipse fill="pink" stroke="pink" cx="553.261" cy="-424.846" rx="47.554" ry="18"/><text text-anchor="middle" x="553.261" y="-420.646" font-family="Times,serif" font-size="14">Storage 3</text></g><g class="edge"><title>Worker 1-&amp;gt;Storage 3</title><path fill="none" stroke="gray" d="M351.285-337.887l162.674-70.038"/><ellipse fill="gray" stroke="gray" cx="517.864" cy="-409.606" rx="4" ry="4"/></g><g class="node"><title>Storage 4</title><ellipse fill="pink" stroke="pink" cx="500.441" cy="-508.798" rx="47.554" ry="18"/><text text-anchor="middle" x="500.441" y="-504.598" font-family="Times,serif" font-size="14">Storage 4</text></g><g class="edge"><title>Worker 1-&amp;gt;Storage 4</title><path fill="none" stroke="gray" d="M334.582-341.121l143.111-144.68"/><ellipse fill="gray" stroke="gray" cx="480.932" cy="-489.075" rx="4" ry="4"/></g><g class="node"><title>Worker 2</title><path fill="#add8e6" stroke="#add8e6" d="M377.137-424.415h-69.501v36h69.501v-36z"/><text text-anchor="middle" x="342.387" y="-402.215" font-family="Times,serif" font-size="14">Worker 2</text></g><g class="edge"><title>Worker 2-&amp;gt;Worker 1</title><path fill="none" stroke="gray" d="M342.555-388.304c-2.13 11.001-6.186 25.253-10.589 37.643"/><path fill="gray" stroke="gray" d="M335.206-349.333l-6.815 8.112.269-10.591 6.546 2.479z"/></g><g class="edge"><title>Worker 2-&amp;gt;Worker 1</title><path fill="none" stroke="gray" d="M330.701-388.361c-4.446 10.918-8.975 25.054-12.04 37.394"/><path fill="gray" stroke="gray" d="M322.061-350.131l-5.596 8.997-1.236-10.523 6.832 1.526z"/></g><g class="edge"><title>Worker 2-&amp;gt;Worker 2</title><path fill="none" stroke="gray" d="M377.055-413.145c10.119.232 17.957 2.476 17.957 6.73 0 2.658-3.062 4.532-7.828 5.619"/><path fill="gray" stroke="gray" d="M387.377-397.296l-10.322-2.39 9.56-4.568.762 6.958z"/></g><g class="edge"><title>Worker 2-&amp;gt;Worker 3</title><path fill="none" stroke="gray" d="M377.213-406.316c44.91 7.724 122.672 29.742 169.246 47.657"/><path fill="gray" stroke="gray" d="M547.901-361.852l8 6.947-10.586-.442 2.586-6.505z"/></g><g class="edge"><title>Worker 2-&amp;gt;Worker 3</title><path fill="none" stroke="gray" d="M370.992-388.413c41.709 17.248 119.504 39.983 168.904 49.682"/><path fill="gray" stroke="gray" d="M540.786-342.126l9.197 5.26-10.47 1.623 1.273-6.883z"/></g><g class="node"><title>Worker 4</title><path fill="#add8e6" stroke="#add8e6" d="M507.666-251.018h-69.502v36h69.502v-36z"/><text text-anchor="middle" x="472.915" y="-228.818" font-family="Times,serif" font-size="14">Worker 4</text></g><g class="edge"><title>Worker 2-&amp;gt;Worker 4</title><path fill="none" stroke="gray" d="M368.278-388.133c29.692 30.779 75.707 92.13 95.794 127.927"/><path fill="gray" stroke="gray" d="M467.221-261.738l1.585 10.476-7.772-7.201 6.187-3.275z"/></g><g class="node"><title>Storage 2</title><ellipse fill="pink" stroke="pink" cx="324.055" cy="-507.968" rx="47.554" ry="18"/><text text-anchor="middle" x="324.055" y="-503.768" font-family="Times,serif" font-size="14">Storage 2</text></g><g class="edge"><title>Worker 2-&amp;gt;Storage 2</title><path fill="none" stroke="gray" d="M339.109-424.571l-10.304-57.084"/><ellipse fill="gray" stroke="gray" cx="328.015" cy="-486.034" rx="4" ry="4"/></g><g class="edge"><title>Worker 2-&amp;gt;Storage 4</title><path fill="none" stroke="gray" d="M354.285-424.462c21.475-20.035 66.747-50.589 101.341-69.331"/><ellipse fill="gray" stroke="gray" cx="459.298" cy="-495.735" rx="4" ry="4"/></g><g class="edge"><title>Worker 2-&amp;gt;Storage 4</title><path fill="none" stroke="gray" d="M377.209-416.19c32.72-16.466 80.084-47.497 105.659-69.493"/><ellipse fill="gray" stroke="gray" cx="485.899" cy="-488.397" rx="4" ry="4"/></g><g class="edge"><title>Worker 2-&amp;gt;Storage 4</title><path fill="none" stroke="gray" d="M370.28-424.484l98.894-64.061"/><ellipse fill="gray" stroke="gray" cx="472.835" cy="-490.916" rx="4" ry="4"/></g><g class="node"><title>Storage 6</title><ellipse fill="pink" stroke="pink" cx="607.657" cy="-215.892" rx="47.554" ry="18"/><text text-anchor="middle" x="607.657" y="-211.692" font-family="Times,serif" font-size="14">Storage 6</text></g><g class="edge"><title>Worker 2-&amp;gt;Storage 6</title><path fill="none" stroke="gray" d="M367.822-388.147l210.822 151.418"/><ellipse fill="gray" stroke="gray" cx="582.078" cy="-234.263" rx="4" ry="4"/></g><g class="edge"><title>Worker 3-&amp;gt;Worker 1</title><path fill="none" stroke="gray" d="M549.998-325.462c-48.286 7.54-135.561 12.307-188.614 10.537"/><path fill="gray" stroke="gray" d="M361.089-311.434l-9.837-3.933 10.143-3.06-.306 6.993z"/></g><g class="edge"><title>Worker 3-&amp;gt;Worker 1</title><path fill="none" stroke="gray" d="M550.061-334.97l-188.569 9.699"/><path fill="gray" stroke="gray" d="M361.519-321.768l-10.167-2.982 9.807-4.009.36 6.991z"/></g><g class="edge"><title>Worker 3-&amp;gt;Worker 2</title><path fill="none" stroke="gray" d="M550.113-346.739l-163.435-46.952"/><path fill="gray" stroke="gray" d="M385.706-390.329l-8.644-6.125 10.577-.603-1.933 6.728z"/></g><g class="edge"><title>Worker 3-&amp;gt;Worker 3</title><path fill="none" stroke="gray" d="M619.521-343.489c10.119.233 17.957 2.476 17.957 6.73 0 2.659-3.062 4.532-7.829 5.62"/><path fill="gray" stroke="gray" d="M629.843-327.639l-10.322-2.39 9.559-4.569.763 6.959z"/></g><g class="edge"><title>Worker 3-&amp;gt;Worker 4</title><path fill="none" stroke="gray" d="M578.472-318.758c-12.542 17.719-39.071 43.991-62.529 63.006"/><path fill="gray" stroke="gray" d="M517.827-252.781l-10.025 3.426 5.7-8.93 4.325 5.504z"/></g><g class="edge"><title>Worker 3-&amp;gt;Worker 4</title><path fill="none" stroke="gray" d="M550.075-320.505c-21.892 16.609-48.631 41.892-64.461 61.248"/><path fill="gray" stroke="gray" d="M488.219-256.903l-8.865 5.802 3.312-10.064 5.553 4.262z"/></g><g class="edge"><title>Worker 3-&amp;gt;Storage 4</title><path fill="none" stroke="gray" d="M575.979-354.845l-63.116-128.636"/><ellipse fill="gray" stroke="gray" cx="510.958" cy="-487.364" rx="4" ry="4"/></g><g class="node"><title>Storage 5</title><ellipse fill="pink" stroke="pink" cx="535.183" cy="-134.225" rx="47.554" ry="18"/><text text-anchor="middle" x="535.183" y="-130.025" font-family="Times,serif" font-size="14">Storage 5</text></g><g class="edge"><title>Worker 3-&amp;gt;Storage 5</title><path fill="none" stroke="gray" d="M580.357-318.428l-38.756 158.031"/><ellipse fill="gray" stroke="gray" cx="540.585" cy="-156.253" rx="4" ry="4"/></g><g class="edge"><title>Worker 3-&amp;gt;Storage 6</title><path fill="none" stroke="gray" d="M588.267-318.664l14.437 76.523"/><ellipse fill="gray" stroke="gray" cx="603.478" cy="-238.041" rx="4" ry="4"/></g><g class="edge"><title>Worker 4-&amp;gt;Worker 1</title><path fill="none" stroke="gray" d="M438.203-234.85c-33.442-11.902-81.91-40.201-106.624-62.578"/><path fill="gray" stroke="gray" d="M328.815-295.238l-4.651-9.519 9.572 4.54-4.921 4.979z"/></g><g class="edge"><title>Worker 4-&amp;gt;Worker 1</title><path fill="none" stroke="gray" d="M465.545-251.035c-19.111-21.183-67.808-51.279-104.541-66.376"/><path fill="gray" stroke="gray" d="M359.546-314.222l-8.074-6.86 10.59.328-2.516 6.532z"/></g><g class="edge"><title>Worker 4-&amp;gt;Worker 1</title><path fill="none" stroke="gray" d="M451.676-251.02c-23.345-15.645-61.413-37.939-91.208-53.649"/><path fill="gray" stroke="gray" d="M358.775-301.605l-7.262-7.714 10.488 1.502-3.226 6.212z"/></g><g class="edge"><title>Worker 4-&amp;gt;Worker 1</title><path fill="none" stroke="gray" d="M438.131-246.609c-27.579-14.068-65.662-35.974-91.822-52.811"/><path fill="gray" stroke="gray" d="M344.369-296.507l-6.443-8.41 10.282 2.557-3.839 5.853z"/></g><g class="edge"><title>Worker 4-&amp;gt;Worker 2</title><path fill="none" stroke="gray" d="M447.024-251.3c-29.692-30.779-75.707-92.13-95.794-127.927"/><path fill="gray" stroke="gray" d="M348.08-377.696l-1.584-10.475 7.771 7.201-6.187 3.274z"/></g><g class="edge"><title>Worker 4-&amp;gt;Worker 2</title><path fill="none" stroke="gray" d="M459.193-251.247l-97.051-128.925"/><path fill="gray" stroke="gray" d="M359.339-378.076l-3.218-10.095 8.81 5.885-5.592 4.21z"/></g><g class="edge"><title>Worker 4-&amp;gt;Worker 3</title><path fill="none" stroke="gray" d="M492.413-251.088l65.424-60.634"/><path fill="gray" stroke="gray" d="M555.489-314.317l9.713-4.231-4.955 9.365-4.758-5.134z"/></g><g class="edge"><title>Worker 4-&amp;gt;Storage 1</title><path fill="none" stroke="gray" d="M459.009-251.13l-14.795-19.268"/><ellipse fill="gray" stroke="gray" cx="441.471" cy="-273.971" rx="4" ry="4"/></g><g class="edge"><title>Worker 4-&amp;gt;Storage 3</title><path fill="none" stroke="gray" d="M480.474-251.065l62.017-148.066"/><ellipse fill="gray" stroke="gray" cx="544.236" cy="-403.298" rx="4" ry="4"/></g><g class="edge"><title>Worker 4-&amp;gt;Storage 4</title><path fill="none" stroke="gray" d="M467.667-251.389c-3.398-47.848 8.984-176.383 21.777-231.616"/><ellipse fill="gray" stroke="gray" cx="490.447" cy="-487.029" rx="4" ry="4"/></g><g class="edge"><title>Worker 4-&amp;gt;Storage 4</title><path fill="none" stroke="gray" d="M482.034-251.252c12.774-47.607 25.886-175.755 24.052-231.291"/><ellipse fill="gray" stroke="gray" cx="505.867" cy="-486.815" rx="4" ry="4"/></g><g class="edge"><title>Worker 4-&amp;gt;Storage 4</title><path fill="none" stroke="gray" d="M474.721-251.113l23.08-231.231"/><ellipse fill="gray" stroke="gray" cx="498.231" cy="-486.657" rx="4" ry="4"/></g><g class="edge"><title>Worker 4-&amp;gt;Storage 5</title><path fill="none" stroke="gray" d="M498.316-214.906c12.702 15.534 26.413 37.782 33.794 55.098"/><ellipse fill="gray" stroke="gray" cx="533.589" cy="-155.972" rx="4" ry="4"/></g><g class="edge"><title>Worker 4-&amp;gt;Storage 5</title><path fill="none" stroke="gray" d="M473.211-214.588c5.708 16.542 19.672 40.471 33.225 58.035"/><ellipse fill="gray" stroke="gray" cx="509.276" cy="-153.037" rx="4" ry="4"/></g><g class="edge"><title>Worker 4-&amp;gt;Storage 5</title><path fill="none" stroke="gray" d="M484.336-214.898l35.248 55.924"/><ellipse fill="gray" stroke="gray" cx="521.911" cy="-155.282" rx="4" ry="4"/></g><g class="edge"><title>Worker 4-&amp;gt;Storage 6</title><path fill="none" stroke="gray" d="M507.614-228.608l46.463 5.906"/><ellipse fill="gray" stroke="gray" cx="558.175" cy="-222.181" rx="4" ry="4"/></g><g class="node"><title>SIL</title><path fill="#90ee90" stroke="#90ee90" d="M148.349-77.773H24.788v36h123.561v-36z"/><text text-anchor="middle" x="86.568" y="-55.573" font-family="Times,serif" font-size="14">Spark Image Layer</text></g><g class="edge"><title>SDB-&amp;gt;SIL</title><path fill="none" stroke="red" d="M160.752-345.029L93.889-87.924"/><path fill="red" stroke="red" d="M97.246-86.925l-5.904 8.797-.87-10.559 6.774 1.762z"/></g><g class="edge"><title>SDB-&amp;gt;Spark SQL</title><path fill="none" stroke="#000" d="M161.497-381.369c-1.34-23.452.228-64.308 3.31-91.194"/><ellipse stroke="#000" cx="165.35" cy="-476.794" rx="4" ry="4"/></g><g class="node"><title>Spark Core</title><path fill="#b0c4de" stroke="#b0c4de" d="M259.356-202.067h-79.741v36h79.741v-36z"/><text text-anchor="middle" x="219.486" y="-179.867" font-family="Times,serif" font-size="14">Spark Core</text></g><g class="edge"><title>SDB-&amp;gt;Spark Core</title><path fill="none" stroke="#000" d="M170.929-344.943l40.707 134.87"/><ellipse stroke="#000" cx="212.837" cy="-206.096" rx="4" ry="4"/></g><g class="edge"><title>SIL-&amp;gt;Spark Core</title><path fill="none" stroke="#000" d="M99.227-77.846c19.86-21.948 58.638-58.743 86.851-82.812"/><ellipse stroke="#000" cx="189.226" cy="-163.312" rx="4" ry="4"/></g><g class="edge"><title>SIL-&amp;gt;Spark Core</title><path fill="none" stroke="red" d="M113.64-77.843c25.679-21.337 63.507-56.725 86.361-80.801"/><path fill="red" stroke="red" d="M197.491-161.085l9.369-4.946-4.24 9.709-5.129-4.763z"/></g><g class="node"><title>MLLib</title><path fill="#b0c4de" stroke="#b0c4de" d="M329.063-47.083h-56.884v36h56.884v-36z"/><text text-anchor="middle" x="300.621" y="-24.883" font-family="Times,serif" font-size="14">MLLib</text></g><g class="edge"><title>SIL-&amp;gt;MLLib</title><path fill="none" stroke="#000" d="M148.481-50.896L264.232-34.3"/><ellipse stroke="#000" cx="268.387" cy="-33.704" rx="4" ry="4"/></g><g class="node"><title>GraphX</title><path fill="#b0c4de" stroke="#b0c4de" d="M539.173-36h-61.177V0h61.177v-36z"/><text text-anchor="middle" x="508.585" y="-13.8" font-family="Times,serif" font-size="14">GraphX</text></g><g class="edge"><title>SIL-&amp;gt;GraphX</title><path fill="none" stroke="#000" d="M148.385-53.654l321.342 31.808"/><ellipse stroke="#000" cx="473.842" cy="-21.439" rx="4" ry="4"/></g><g class="edge"><title>Spark SQL-&amp;gt;SDB</title><path fill="none" stroke="red" d="M175.444-480.848c1.31 22.944-.162 62.548-3.112 89.429"/><path fill="red" stroke="red" d="M175.799-390.942l-4.717 9.486-2.228-10.357 6.945.871z"/></g><g class="node"><title>Master Cloud Node</title><path fill="#b0c4de" stroke="#b0c4de" d="M405.158-209.629H278.321v36h126.837v-36z"/><text text-anchor="middle" x="341.74" y="-187.429" font-family="Times,serif" font-size="14">Master Cloud Node</text></g><g class="edge"><title>Spark Core-&amp;gt;Master Cloud Node</title><path fill="none" stroke="#000" d="M259.46-192.944c3.531-.345 7.169-.663 10.858-.951"/><ellipse stroke="#000" cx="274.466" cy="-194.191" rx="4" ry="4"/></g><g class="edge"><title>Spark Core-&amp;gt;Master Cloud Node</title><path fill="none" stroke="red" d="M259.233-180.16c2.982-.071 6.042-.172 9.146-.299"/><path fill="red" stroke="red" d="M268.239-183.956l10.16 3.002-9.815 3.989-.345-6.991z"/></g><g class="edge"><title>MLLib-&amp;gt;Spark Core</title><path fill="none" stroke="#000" d="M291.155-47.165L232.87-158.5"/><ellipse stroke="#000" cx="230.998" cy="-162.076" rx="4" ry="4"/></g><g class="edge"><title>GraphX-&amp;gt;Spark Core</title><path fill="none" stroke="#000" d="M477.92-35.615L258.326-161.756"/><ellipse stroke="#000" cx="254.618" cy="-163.886" rx="4" ry="4"/></g><g class="edge"><title>Master Cloud Node-&amp;gt;Worker 1</title><path fill="none" stroke="gray" d="M338.247-209.891l-16.659-87.108"/><ellipse fill="gray" stroke="gray" cx="320.837" cy="-300.928" rx="4" ry="4"/></g><g class="edge"><title>Master Cloud Node-&amp;gt;Worker 2</title><path fill="none" stroke="gray" d="M341.795-209.942l.512-169.972"/><ellipse fill="gray" stroke="gray" cx="342.32" cy="-384.149" rx="4" ry="4"/></g><g class="edge"><title>Master Cloud Node-&amp;gt;Worker 3</title><path fill="none" stroke="gray" d="M372.038-209.716l175.381-104.696"/><ellipse fill="gray" stroke="gray" cx="551.12" cy="-316.622" rx="4" ry="4"/></g><g class="edge"><title>Master Cloud Node-&amp;gt;Worker 4</title><path fill="none" stroke="gray" d="M398.893-209.662l31.475-9.931"/><ellipse fill="gray" stroke="gray" cx="434.408" cy="-220.868" rx="4" ry="4"/></g></g></svg>