<svg width="433pt" height="337pt" viewBox="0.00 0.00 433.39 336.73" xmlns="http://www.w3.org/2000/svg"><g class="graph" transform="translate(4 332.73)"><title>%3</title><path fill="#fff" d="M-4 4v-336.73h433.386V4H-4z"/><g class="node"><title>Worker 1</title><path fill="#add8e6" stroke="#add8e6" d="M331.872-51.6H262.37v36h69.502v-36z"/><text text-anchor="middle" x="297.121" y="-29.4" font-family="Times,serif" font-size="14">Worker 1</text></g><g class="edge"><title>Worker 1-&amp;gt;Worker 1</title><path fill="none" stroke="gray" d="M331.79-35.282c10.118.058 17.956.618 17.956 1.682 0 .665-3.061 1.133-7.828 1.405"/><path fill="gray" stroke="gray" d="M341.882-28.693l-10.092-3.224 9.9-3.773.192 6.997z"/></g><g class="edge"><title>Worker 1-&amp;gt;Worker 1</title><path fill="none" stroke="gray" d="M331.793-38.94c34.227-2.997 71.953-1.217 71.953 5.34 0 6.044-32.062 8.03-63.886 5.955"/><ellipse fill="gray" stroke="gray" cx="335.782" cy="-27.956" rx="4" ry="4"/></g><g class="edge"><title>Worker 1-&amp;gt;Worker 1</title><path fill="none" stroke="gray" d="M332.151-38.037c26.613-1.604 53.595-.124 53.595 4.437 0 4.098-21.78 5.708-45.504 4.83"/><ellipse fill="gray" stroke="gray" cx="336.146" cy="-28.969" rx="4" ry="4"/></g><g class="edge"><title>Worker 1-&amp;gt;Worker 1</title><path fill="none" stroke="gray" d="M332.005-36.836c18.703-.55 35.741.529 35.741 3.236 0 2.305-12.355 3.43-27.572 3.373"/><ellipse fill="gray" stroke="gray" cx="336.005" cy="-30.297" rx="4" ry="4"/></g><g class="node"><title>Worker 2</title><path fill="#add8e6" stroke="#add8e6" d="M331.872-328.73H262.37v36h69.502v-36z"/><text text-anchor="middle" x="297.121" y="-306.53" font-family="Times,serif" font-size="14">Worker 2</text></g><g class="edge"><title>Worker 1-&amp;gt;Worker 2</title><path fill="none" stroke="gray" d="M293.561-51.783c-3.994-47.174-4.238-173.757-.73-230.613"/><path fill="gray" stroke="gray" d="M289.348-282.756l4.208-9.724 2.774 10.226-6.982-.502z"/></g><g class="node"><title>Worker 3</title><path fill="#add8e6" stroke="#add8e6" d="M91.87-190.165H22.37v36H91.87v-36z"/><text text-anchor="middle" x="57.12" y="-167.965" font-family="Times,serif" font-size="14">Worker 3</text></g><g class="edge"><title>Worker 1-&amp;gt;Worker 3</title><path fill="none" stroke="gray" d="M262.359-48.14c-46.757-24.004-129.128-71.533-174.008-100.38"/><path fill="gray" stroke="gray" d="M86.365-145.637l-6.468-8.391 10.29 2.526-3.822 5.865z"/></g><g class="node"><title>Storage 1</title><ellipse fill="pink" stroke="pink" cx="377.122" cy="-172.165" rx="47.554" ry="18"/><text text-anchor="middle" x="377.122" y="-167.965" font-family="Times,serif" font-size="14">Storage 1</text></g><g class="edge"><title>Worker 1-&amp;gt;Storage 1</title><path fill="none" stroke="gray" d="M307.58-51.715l55.32-95.817"/><ellipse fill="gray" stroke="gray" cx="364.913" cy="-151.02" rx="4" ry="4"/></g><g class="edge"><title>Worker 2-&amp;gt;Worker 1</title><path fill="none" stroke="gray" d="M300.681-292.547c3.994 47.174 4.238 173.757.73 230.613"/><path fill="gray" stroke="gray" d="M304.894-61.574l-4.208 9.724-2.774-10.225 6.982.502z"/></g><g class="edge"><title>Worker 2-&amp;gt;Worker 2</title><path fill="none" stroke="gray" d="M331.79-312.412c10.118.058 17.956.619 17.956 1.682 0 .665-3.061 1.133-7.828 1.405"/><path fill="gray" stroke="gray" d="M341.882-305.823l-10.092-3.224 9.9-3.773.192 6.997z"/></g><g class="edge"><title>Worker 2-&amp;gt;Worker 2</title><path fill="none" stroke="gray" d="M331.793-316.07c34.227-2.997 71.953-1.217 71.953 5.34 0 6.044-32.062 8.029-63.886 5.955"/><ellipse fill="gray" stroke="gray" cx="335.782" cy="-305.086" rx="4" ry="4"/></g><g class="edge"><title>Worker 2-&amp;gt;Worker 2</title><path fill="none" stroke="gray" d="M332.151-315.167c26.613-1.603 53.595-.124 53.595 4.437 0 4.098-21.78 5.708-45.504 4.83"/><ellipse fill="gray" stroke="gray" cx="336.146" cy="-306.099" rx="4" ry="4"/></g><g class="edge"><title>Worker 2-&amp;gt;Worker 2</title><path fill="none" stroke="gray" d="M332.005-313.966c18.703-.55 35.741.529 35.741 3.236 0 2.305-12.355 3.43-27.572 3.373"/><ellipse fill="gray" stroke="gray" cx="336.005" cy="-307.427" rx="4" ry="4"/></g><g class="node"><title>Worker 4</title><path fill="#add8e6" stroke="#add8e6" d="M171.871-328.73h-69.502v36h69.502v-36z"/><text text-anchor="middle" x="137.12" y="-306.53" font-family="Times,serif" font-size="14">Worker 4</text></g><g class="edge"><title>Worker 2-&amp;gt;Worker 4</title><path fill="none" stroke="gray" d="M262.403-305.052c-23.587 1.257-55.006 1.409-80.479.454"/><path fill="gray" stroke="gray" d="M181.602-301.109l-9.832-3.946 10.148-3.046-.316 6.992z"/></g><g class="edge"><title>Worker 2-&amp;gt;Storage 1</title><path fill="none" stroke="gray" d="M307.58-292.615l55.32 95.817"/><ellipse fill="gray" stroke="gray" cx="364.913" cy="-193.31" rx="4" ry="4"/></g><g class="edge"><title>Worker 3-&amp;gt;Worker 1</title><path fill="none" stroke="gray" d="M91.881-157.624C138.64-133.621 221.01-86.092 265.89-57.244"/><path fill="gray" stroke="gray" d="M267.875-60.128l6.469 8.391-10.29-2.526 3.821-5.865z"/></g><g class="edge"><title>Worker 3-&amp;gt;Worker 3</title><path fill="none" stroke="gray" d="M91.788-173.847c10.119.058 17.957.619 17.957 1.682 0 .665-3.062 1.133-7.829 1.405"/><path fill="gray" stroke="gray" d="M101.88-167.258l-10.092-3.225 9.901-3.772.191 6.997z"/></g><g class="edge"><title>Worker 3-&amp;gt;Worker 3</title><path fill="none" stroke="gray" d="M91.792-177.505c34.226-2.997 71.953-1.217 71.953 5.34 0 6.044-32.062 8.029-63.887 5.955"/><ellipse fill="gray" stroke="gray" cx="95.78" cy="-166.521" rx="4" ry="4"/></g><g class="edge"><title>Worker 3-&amp;gt;Worker 3</title><path fill="none" stroke="gray" d="M92.15-176.602c26.612-1.603 53.595-.124 53.595 4.437 0 4.098-21.78 5.708-45.504 4.83"/><ellipse fill="gray" stroke="gray" cx="96.144" cy="-167.534" rx="4" ry="4"/></g><g class="edge"><title>Worker 3-&amp;gt;Worker 3</title><path fill="none" stroke="gray" d="M92.004-175.401c18.702-.55 35.741.529 35.741 3.236 0 2.305-12.356 3.43-27.573 3.373"/><ellipse fill="gray" stroke="gray" cx="96.003" cy="-168.862" rx="4" ry="4"/></g><g class="edge"><title>Worker 3-&amp;gt;Worker 4</title><path fill="none" stroke="gray" d="M62.405-190.307c10.891-23.988 34.88-66.299 52.879-93.871"/><path fill="gray" stroke="gray" d="M112.426-286.201l8.467-6.369-2.647 10.259-5.82-3.89z"/></g><g class="edge"><title>Worker 3-&amp;gt;Storage 1</title><path fill="none" stroke="gray" d="M91.975-172.165h228.851"/><ellipse fill="gray" stroke="gray" cx="325.075" cy="-172.165" rx="4" ry="4"/></g><g class="edge"><title>Worker 4-&amp;gt;Worker 2</title><path fill="none" stroke="gray" d="M171.838-316.408c23.588-1.257 55.006-1.408 80.479-.454"/><path fill="gray" stroke="gray" d="M252.639-320.351l9.832 3.946-10.147 3.047.315-6.993z"/></g><g class="edge"><title>Worker 4-&amp;gt;Worker 3</title><path fill="none" stroke="gray" d="M131.835-292.588c-10.892 23.988-34.881 66.299-52.88 93.871"/><path fill="gray" stroke="gray" d="M81.814-196.694l-8.467 6.369 2.647-10.258 5.82 3.889z"/></g><g class="edge"><title>Worker 4-&amp;gt;Worker 4</title><path fill="none" stroke="gray" d="M171.789-312.412c10.118.058 17.956.619 17.956 1.682 0 .665-3.061 1.133-7.828 1.405"/><path fill="gray" stroke="gray" d="M181.881-305.823l-10.092-3.224 9.9-3.773.192 6.997z"/></g><g class="edge"><title>Worker 4-&amp;gt;Worker 4</title><path fill="none" stroke="gray" d="M171.792-316.07c34.227-2.997 71.953-1.217 71.953 5.34 0 6.044-32.062 8.029-63.886 5.955"/><ellipse fill="gray" stroke="gray" cx="175.781" cy="-305.086" rx="4" ry="4"/></g><g class="edge"><title>Worker 4-&amp;gt;Worker 4</title><path fill="none" stroke="gray" d="M172.15-315.167c26.613-1.603 53.595-.124 53.595 4.437 0 4.098-21.78 5.708-45.504 4.83"/><ellipse fill="gray" stroke="gray" cx="176.145" cy="-306.099" rx="4" ry="4"/></g><g class="edge"><title>Worker 4-&amp;gt;Worker 4</title><path fill="none" stroke="gray" d="M172.004-313.966c18.703-.55 35.741.529 35.741 3.236 0 2.305-12.355 3.43-27.572 3.373"/><ellipse fill="gray" stroke="gray" cx="176.004" cy="-307.427" rx="4" ry="4"/></g><g class="edge"><title>Worker 4-&amp;gt;Storage 1</title><path fill="none" stroke="gray" d="M168.496-292.615l175.277 101.196"/><ellipse fill="gray" stroke="gray" cx="347.43" cy="-189.307" rx="4" ry="4"/></g><g class="node"><title>user</title><ellipse fill="none" stroke="purple" cx="396.121" cy="-67.165" rx="29.032" ry="29.032"/><text text-anchor="middle" x="396.121" y="-62.965" font-family="Times,serif" font-size="14">User</text></g><g class="node"><title>driver</title><path fill="lightgray" stroke="lightgray" d="M421.121-281.165h-54v36h54v-36z"/><text text-anchor="middle" x="394.121" y="-258.965" font-family="Times,serif" font-size="14">Driver</text></g><g class="node"><title>master</title><path fill="#90ee90" stroke="#90ee90" d="M181.311-51.6H92.929v36h88.382v-36z"/><text text-anchor="middle" x="137.12" y="-29.4" font-family="Times,serif" font-size="14">Master Node</text></g><g class="edge"><title>master-&amp;gt;Worker 1</title><path fill="none" stroke="gray" d="M181.689-33.6h72.704"/><ellipse fill="gray" stroke="gray" cx="258.422" cy="-33.6" rx="4" ry="4"/><text text-anchor="middle" x="218.041" y="-21" font-family="Times,serif" font-size="14">Compare Images:</text><text text-anchor="middle" x="218.041" y="-4.2" font-family="Times,serif" font-size="14">0 to 2</text></g><g class="edge"><title>master-&amp;gt;Worker 2</title><path fill="none" stroke="gray" d="M147.618-51.783l134.944-233.73"/><ellipse fill="gray" stroke="gray" cx="284.584" cy="-289.016" rx="4" ry="4"/><text text-anchor="middle" x="165.524" y="-189.648" font-family="Times,serif" font-size="14">Compare Images:</text><text text-anchor="middle" x="165.524" y="-172.848" font-family="Times,serif" font-size="14">3 to 5</text></g><g class="edge"><title>master-&amp;gt;Worker 3</title><path fill="none" stroke="gray" d="M126.661-51.715l-55.057-95.362"/><ellipse fill="gray" stroke="gray" cx="69.581" cy="-150.581" rx="4" ry="4"/><text text-anchor="middle" x="49.566" y="-120.396" font-family="Times,serif" font-size="14">Compare Images:</text><text text-anchor="middle" x="49.566" y="-103.596" font-family="Times,serif" font-size="14">6 to 8</text></g><g class="edge"><title>master-&amp;gt;Worker 4</title><path fill="none" stroke="gray" d="M137.12-51.783v-232.363"/><ellipse fill="gray" stroke="gray" cx="137.12" cy="-288.48" rx="4" ry="4"/><text text-anchor="middle" x="186.686" y="-155.365" font-family="Times,serif" font-size="14">Compare Images:</text><text text-anchor="middle" x="186.686" y="-138.565" font-family="Times,serif" font-size="14">9 to 11</text></g></g></svg>