<svg width="185pt" height="338pt" viewBox="0.00 0.00 185.00 338.00" xmlns="http://www.w3.org/2000/svg"><g class="graph" transform="translate(4 334)"><title>%3</title><path fill="#fff" d="M-4 4v-338h185V4H-4z"/><g class="node"><title>Model</title><path fill="lightgray" stroke="lightgray" d="M164-330h-54v36h54v-36z"/><text text-anchor="middle" x="137" y="-307.8" font-family="Times,serif" font-size="14">Model</text></g><g class="node"><title>Hypothesis</title><ellipse fill="none" stroke="lightgray" cx="96" cy="-240" rx="54.23" ry="18"/><text text-anchor="middle" x="96" y="-235.8" font-family="Times,serif" font-size="14">Hypothesis</text></g><g class="edge"><title>Model-&amp;gt;Hypothesis</title><path fill="none" stroke="#000" d="M126.865-293.697l-15.647 26.715"/><path stroke="#000" d="M114.092-264.964l-8.074 6.86 2.034-10.398 6.04 3.538z"/></g><g class="node"><title>Experiment</title><ellipse fill="none" stroke="lightgray" cx="56" cy="-168" rx="56.134" ry="18"/><text text-anchor="middle" x="56" y="-163.8" font-family="Times,serif" font-size="14">Experiment</text></g><g class="edge"><title>Hypothesis-&amp;gt;Experiment</title><path fill="none" stroke="#000" d="M86.317-222.055l-15.724 27.517"/><path stroke="#000" d="M73.594-192.735l-8 6.946 1.922-10.419 6.078 3.473z"/></g><g class="node"><title>Statistics Validation</title><path fill="#b0c4de" stroke="#b0c4de" d="M177.323-41.602h-74.646V-.398h74.646v-41.204z"/><text text-anchor="middle" x="140" y="-25.2" font-family="Times,serif" font-size="14">Statistics</text><text text-anchor="middle" x="140" y="-8.4" font-family="Times,serif" font-size="14">Validation</text></g><g class="edge"><title>Hypothesis-&amp;gt;Statistics Validation</title><path fill="none" stroke="#000" d="M105.819-221.892c5.357 10.12 11.607 23.37 15.181 35.892 13.027 45.637 17.151 100.847 18.439 134.154"/><path stroke="#000" d="M142.937-51.95l-3.172 10.109-3.824-9.88 6.996-.229z"/></g><g class="node"><title>Data</title><path fill="lightgray" stroke="lightgray" d="M98-114H44v36h54v-36z"/><text text-anchor="middle" x="71" y="-91.8" font-family="Times,serif" font-size="14">Data</text></g><g class="edge"><title>Experiment-&amp;gt;Data</title><path fill="none" stroke="#000" d="M59.708-149.697l5.482 25.585"/><path stroke="#000" d="M68.662-124.616l-1.327 10.512-5.518-9.045 6.845-1.467z"/></g><g class="edge"><title>Data-&amp;gt;Statistics Validation</title><path fill="none" stroke="#000" d="M87.352-77.7l26.972 28.535"/><path stroke="#000" d="M117.002-51.426l4.326 9.671-9.413-4.863 5.087-4.808z"/></g><g class="edge"><title>Statistics Validation-&amp;gt;Model</title><path fill="none" stroke="red" d="M145.237-41.794C155.244-82.624 174.747-178.99 159-258c-1.928-9.673-5.655-19.79-9.501-28.562"/><ellipse fill="red" stroke="red" cx="147.803" cy="-290.246" rx="4" ry="4"/></g></g></svg>