<svg width="996" height="500pt" viewBox="0.00 0.00 746.70 500.47" xmlns="http://www.w3.org/2000/svg"><g class="graph" transform="translate(4 496.468)"><title>%3</title><path fill="#fff" d="M-4 4v-500.468h746.698V4H-4z"/><g class="node"><title>Query</title><path fill="red" stroke="red" d="M54-131.573H0v36h54v-36z"/><text text-anchor="middle" x="27" y="-109.373" font-family="Times,serif" font-size="14">Query</text></g><g class="node"><title>Spark SQL</title><path fill="#b0c4de" stroke="#b0c4de" d="M112.438-316.024H34.236v36h78.202v-36z"/><text text-anchor="middle" x="73.337" y="-293.824" font-family="Times,serif" font-size="14">Spark SQL</text></g><g class="edge"><title>Query-&amp;gt;Spark SQL</title><path fill="none" stroke="red" d="M31.527-131.594l34.754-138.342"/><path fill="red" stroke="red" d="M62.96-271.083l5.831-8.846.958 10.552-6.789-1.706z"/></g><g class="node"><title>Private Database</title><path fill="red" stroke="red" d="M219.23-50.518H108.321v36H219.23v-36z"/><text text-anchor="middle" x="163.776" y="-28.318" font-family="Times,serif" font-size="14">Private Database</text></g><g class="node"><title>SDB</title><path fill="#90ee90" stroke="#90ee90" d="M301.339-204.882H159.463v36h141.876v-36z"/><text text-anchor="middle" x="230.401" y="-182.682" font-family="Times,serif" font-size="14">Spark Image Database</text></g><g class="edge"><title>Private Database-&amp;gt;SDB</title><path fill="none" stroke="#000" d="M171.549-50.528l47.69-110.492"/><ellipse stroke="#000" cx="220.886" cy="-164.836" rx="4" ry="4"/></g><g class="node"><title>Worker 1</title><path fill="#add8e6" stroke="#add8e6" d="M735.647-338.218h-69.502v36h69.502v-36z"/><text text-anchor="middle" x="700.896" y="-316.018" font-family="Times,serif" font-size="14">Worker 1</text></g><g class="node"><title>Worker 2</title><path fill="#add8e6" stroke="#add8e6" d="M321.544-373.493h-69.502v36h69.502v-36z"/><text text-anchor="middle" x="286.793" y="-351.293" font-family="Times,serif" font-size="14">Worker 2</text></g><g class="edge"><title>Worker 1-&amp;gt;Worker 2</title><path fill="none" stroke="gray" d="M665.989-315.305c-75.017.82-251.501-13.889-334.533-27.524"/><path fill="gray" stroke="gray" d="M330.831-339.385l-9.263-5.143 10.449-1.756-1.186 6.899z"/></g><g class="edge"><title>Worker 1-&amp;gt;Worker 2</title><path fill="none" stroke="gray" d="M666.266-331.156c-74.798-13.52-251.384-28.818-334.604-29.272"/><path fill="gray" stroke="gray" d="M331.52-356.928l-10.009-3.475 9.992-3.525.017 7z"/></g><g class="node"><title>Worker 3</title><path fill="#add8e6" stroke="#add8e6" d="M383.725-283.042h-69.502v36h69.502v-36z"/><text text-anchor="middle" x="348.974" y="-260.842" font-family="Times,serif" font-size="14">Worker 3</text></g><g class="edge"><title>Worker 1-&amp;gt;Worker 3</title><path fill="none" stroke="gray" d="M666.218-306.093c-64.222 16.478-201.538 38.226-272.598 43.398"/><path fill="gray" stroke="gray" d="M393.836-259.202l-10.203-2.853 9.755-4.133.448 6.986z"/></g><g class="edge"><title>Worker 1-&amp;gt;Worker 3</title><path fill="none" stroke="gray" d="M666.181-323.202c-64.21 3.497-201.401 24.617-272.474 41.553"/><path fill="gray" stroke="gray" d="M394.265-278.182l-10.547-1.002 8.869-5.794 1.678 6.796z"/></g><g class="node"><title>Worker 4</title><path fill="#add8e6" stroke="#add8e6" d="M623.075-240.581h-69.501v36h69.501v-36z"/><text text-anchor="middle" x="588.325" y="-218.381" font-family="Times,serif" font-size="14">Worker 4</text></g><g class="edge"><title>Worker 1-&amp;gt;Worker 4</title><path fill="none" stroke="gray" d="M679.986-302.082l-63.116 54.743"/><path fill="gray" stroke="gray" d="M618.97-244.528l-9.847 3.908 5.261-9.196 4.586 5.288z"/></g><g class="edge"><title>Worker 2-&amp;gt;Worker 1</title><path fill="none" stroke="gray" d="M321.743-352.516l334.309 28.478"/><path fill="gray" stroke="gray" d="M656.52-327.511l9.667 4.337-10.262 2.638.595-6.975z"/></g><g class="edge"><title>Worker 2-&amp;gt;Worker 2</title><path fill="none" stroke="gray" d="M321.462-362.222c10.119.232 17.957 2.475 17.957 6.729 0 2.659-3.062 4.532-7.829 5.62"/><path fill="gray" stroke="gray" d="M331.784-346.373l-10.322-2.39 9.559-4.568.763 6.958z"/></g><g class="edge"><title>Worker 2-&amp;gt;Worker 3</title><path fill="none" stroke="gray" d="M314.206-337.235c11.111 12.876 22.697 30.104 29.888 44.604"/><path fill="gray" stroke="gray" d="M347.459-293.676l.851 10.561-7.251-7.725 6.4-2.836z"/></g><g class="edge"><title>Worker 2-&amp;gt;Worker 3</title><path fill="none" stroke="gray" d="M287.454-337.427c5.1 13.382 16.174 31.488 27.738 46.343"/><path fill="gray" stroke="gray" d="M318.007-293.172l3.626 9.955-9.043-5.52 5.417-4.435z"/></g><g class="edge"><title>Worker 2-&amp;gt;Worker 3</title><path fill="none" stroke="gray" d="M299.376-337.189l31.106 45.248"/><path fill="gray" stroke="gray" d="M333.628-293.542l2.781 10.223-8.549-6.258 5.768-3.965z"/></g><g class="edge"><title>Worker 2-&amp;gt;Worker 4</title><path fill="none" stroke="gray" d="M321.646-353.99c62.247 16.33 190.272 72.844 243.23 107.459"/><path fill="gray" stroke="gray" d="M567.024-249.302l6.262 8.547-10.225-2.776 3.963-5.771z"/></g><g class="edge"><title>Worker 2-&amp;gt;Worker 4</title><path fill="none" stroke="gray" d="M301.851-337.305c44.198 32.153 173.015 90.223 241.975 110.527"/><path fill="gray" stroke="gray" d="M544.858-230.124l8.691 6.06-10.573.683 1.882-6.743z"/></g><g class="node"><title>Storage 1</title><ellipse fill="pink" stroke="pink" cx="272.45" cy="-474.468" rx="47.554" ry="18"/><text text-anchor="middle" x="272.45" y="-470.268" font-family="Times,serif" font-size="14">Storage 1</text></g><g class="edge"><title>Worker 2-&amp;gt;Storage 1</title><path fill="none" stroke="gray" d="M279.468-373.736c-4.41-19.863-8.455-51.802-9.551-74.386"/><ellipse fill="gray" stroke="gray" cx="269.779" cy="-452.276" rx="4" ry="4"/></g><g class="edge"><title>Worker 2-&amp;gt;Storage 1</title><path fill="none" stroke="gray" d="M289.597-373.641c-.299-20.056-3.955-52.505-8.295-75.159"/><ellipse fill="gray" stroke="gray" cx="280.487" cy="-452.744" rx="4" ry="4"/></g><g class="node"><title>Storage 2</title><ellipse fill="pink" stroke="pink" cx="77.554" cy="-451.033" rx="47.554" ry="18"/><text text-anchor="middle" x="77.554" y="-446.833" font-family="Times,serif" font-size="14">Storage 2</text></g><g class="edge"><title>Worker 2-&amp;gt;Storage 2</title><path fill="none" stroke="gray" d="M251.771-371.484l-136.044-62.119"/><ellipse fill="gray" stroke="gray" cx="111.895" cy="-435.352" rx="4" ry="4"/></g><g class="node"><title>Storage 3</title><ellipse fill="pink" stroke="pink" cx="676.697" cy="-465.614" rx="47.554" ry="18"/><text text-anchor="middle" x="676.697" y="-461.414" font-family="Times,serif" font-size="14">Storage 3</text></g><g class="edge"><title>Worker 2-&amp;gt;Storage 3</title><path fill="none" stroke="gray" d="M321.738-365.362l308.669-87.178"/><ellipse fill="gray" stroke="gray" cx="634.408" cy="-453.67" rx="4" ry="4"/></g><g class="node"><title>Storage 4</title><ellipse fill="pink" stroke="pink" cx="529.156" cy="-456.926" rx="47.554" ry="18"/><text text-anchor="middle" x="529.156" y="-452.726" font-family="Times,serif" font-size="14">Storage 4</text></g><g class="edge"><title>Worker 2-&amp;gt;Storage 4</title><path fill="none" stroke="gray" d="M321.518-370.026l167.787-70.222"/><ellipse fill="gray" stroke="gray" cx="493.129" cy="-441.848" rx="4" ry="4"/></g><g class="node"><title>Storage 5</title><ellipse fill="pink" stroke="pink" cx="413.84" cy="-454.783" rx="47.554" ry="18"/><text text-anchor="middle" x="413.84" y="-450.583" font-family="Times,serif" font-size="14">Storage 5</text></g><g class="edge"><title>Worker 2-&amp;gt;Storage 5</title><path fill="none" stroke="gray" d="M310.096-373.704l76.247-59.59"/><ellipse fill="gray" stroke="gray" cx="389.643" cy="-435.872" rx="4" ry="4"/></g><g class="edge"><title>Worker 3-&amp;gt;Worker 1</title><path fill="none" stroke="gray" d="M383.681-270.484l272.522-42.727"/><path fill="gray" stroke="gray" d="M655.768-316.685l10.422 1.909-9.337 5.006-1.085-6.915z"/></g><g class="edge"><title>Worker 3-&amp;gt;Worker 3</title><path fill="none" stroke="gray" d="M383.642-271.772c10.119.233 17.957 2.476 17.957 6.73 0 2.658-3.062 4.532-7.828 5.62"/><path fill="gray" stroke="gray" d="M393.964-255.923l-10.322-2.389 9.56-4.569.762 6.958z"/></g><g class="edge"><title>Worker 3-&amp;gt;Worker 4</title><path fill="none" stroke="gray" d="M383.61-263.847c42.301 5.167 113.917 17.684 160.25 27.866"/><path fill="gray" stroke="gray" d="M544.642-239.393l8.987 5.611-10.525 1.218 1.538-6.829z"/></g><g class="edge"><title>Worker 3-&amp;gt;Storage 3</title><path fill="none" stroke="gray" d="M371.378-283.157c55.286-38.249 198.48-126.138 267.319-164.361"/><ellipse fill="gray" stroke="gray" cx="642.413" cy="-449.564" rx="4" ry="4"/></g><g class="edge"><title>Worker 3-&amp;gt;Storage 3</title><path fill="none" stroke="gray" d="M383.81-281.388c65.72-36.23 206.574-122.509 265.809-162.901"/><ellipse fill="gray" stroke="gray" cx="653.134" cy="-446.711" rx="4" ry="4"/></g><g class="edge"><title>Worker 3-&amp;gt;Storage 4</title><path fill="none" stroke="gray" d="M356.063-283.203c23.87-36.206 97.12-115.422 140.548-153.303"/><ellipse fill="gray" stroke="gray" cx="499.751" cy="-439.188" rx="4" ry="4"/></g><g class="edge"><title>Worker 3-&amp;gt;Storage 4</title><path fill="none" stroke="gray" d="M379.016-283.297c40.612-34.845 110.219-109.423 138.418-148.756"/><ellipse fill="gray" stroke="gray" cx="519.931" cy="-435.677" rx="4" ry="4"/></g><g class="edge"><title>Worker 3-&amp;gt;Storage 4</title><path fill="none" stroke="gray" d="M365.925-283.094l141.739-150.944"/><ellipse fill="gray" stroke="gray" cx="510.42" cy="-436.974" rx="4" ry="4"/></g><g class="edge"><title>Worker 3-&amp;gt;Storage 5</title><path fill="none" stroke="gray" d="M355.193-283.235l49.888-145.928"/><ellipse fill="gray" stroke="gray" cx="406.44" cy="-433.137" rx="4" ry="4"/></g><g class="node"><title>Storage 6</title><ellipse fill="pink" stroke="pink" cx="488.186" cy="-322.659" rx="47.554" ry="18"/><text text-anchor="middle" x="488.186" y="-318.459" font-family="Times,serif" font-size="14">Storage 6</text></g><g class="edge"><title>Worker 3-&amp;gt;Storage 6</title><path fill="none" stroke="gray" d="M366.286-283.05c17.149-10.62 44.135-22.842 68.387-31.461"/><ellipse fill="gray" stroke="gray" cx="438.651" cy="-315.878" rx="4" ry="4"/></g><g class="edge"><title>Worker 3-&amp;gt;Storage 6</title><path fill="none" stroke="gray" d="M383.883-267.154c25.429-7.346 59.073-21.424 81.241-34.084"/><ellipse fill="gray" stroke="gray" cx="468.743" cy="-303.408" rx="4" ry="4"/></g><g class="edge"><title>Worker 3-&amp;gt;Storage 6</title><path fill="none" stroke="gray" d="M383.744-279.433l64.443-26.671"/><ellipse fill="gray" stroke="gray" cx="452.072" cy="-307.712" rx="4" ry="4"/></g><g class="edge"><title>Worker 4-&amp;gt;Worker 2</title><path fill="none" stroke="gray" d="M553.411-233.143C496.738-254.873 385.168-303.91 325.906-333"/><path fill="gray" stroke="gray" d="M324.262-329.909l-7.401-7.581 10.513 1.311-3.112 6.27z"/></g><g class="edge"><title>Worker 4-&amp;gt;Worker 2</title><path fill="none" stroke="gray" d="M558.097-240.664c-53.455-26.855-164.808-76.124-226.962-100.6"/><path fill="gray" stroke="gray" d="M329.65-338.086l-8.052-6.886 10.589.362-2.537 6.524z"/></g><g class="edge"><title>Worker 4-&amp;gt;Worker 3</title><path fill="none" stroke="gray" d="M553.688-223.776c-42.301-5.167-113.917-17.684-160.249-27.865"/><path fill="gray" stroke="gray" d="M392.656-248.23l-8.986-5.611 10.524-1.218-1.538 6.829z"/></g><g class="edge"><title>Worker 4-&amp;gt;Worker 4</title><path fill="none" stroke="gray" d="M622.993-225.946c10.119.117 17.957 1.238 17.957 3.365 0 1.33-3.062 2.266-7.829 2.81"/><path fill="gray" stroke="gray" d="M633.17-216.268l-10.177-2.948 9.794-4.042.383 6.99z"/></g><g class="edge"><title>Worker 4-&amp;gt;Worker 4</title><path fill="none" stroke="gray" d="M623.209-229.052c18.702-1.1 35.741 1.057 35.741 6.471 0 4.399-11.248 6.648-25.498 6.747"/><path fill="gray" stroke="gray" d="M633.111-212.342l-9.902-3.767 10.09-3.23-.188 6.997z"/></g><g class="edge"><title>Worker 4-&amp;gt;Storage 3</title><path fill="none" stroke="gray" d="M594.967-240.848l72.332-198.92"/><ellipse fill="gray" stroke="gray" cx="668.732" cy="-443.707" rx="4" ry="4"/></g><g class="edge"><title>Worker 4-&amp;gt;Storage 4</title><path fill="none" stroke="gray" d="M583.682-240.969l-47.963-189.963"/><ellipse fill="gray" stroke="gray" cx="534.675" cy="-435.066" rx="4" ry="4"/></g><g class="edge"><title>Worker 4-&amp;gt;Storage 5</title><path fill="none" stroke="gray" d="M574.633-240.801L431.844-430.824"/><ellipse fill="gray" stroke="gray" cx="429.394" cy="-434.085" rx="4" ry="4"/></g><g class="edge"><title>Worker 4-&amp;gt;Storage 6</title><path fill="none" stroke="gray" d="M562.057-240.745c-18.361-16.319-42.197-40.235-57.823-58.073"/><ellipse fill="gray" stroke="gray" cx="501.472" cy="-302.049" rx="4" ry="4"/></g><g class="edge"><title>Worker 4-&amp;gt;Storage 6</title><path fill="none" stroke="gray" d="M577.052-240.853c-14.37-17.176-39.424-42.688-59.325-60.705"/><ellipse fill="gray" stroke="gray" cx="514.721" cy="-304.232" rx="4" ry="4"/></g><g class="node"><title>SIL</title><path fill="#90ee90" stroke="#90ee90" d="M419.617-36H296.055V0h123.562v-36z"/><text text-anchor="middle" x="357.836" y="-13.8" font-family="Times,serif" font-size="14">Spark Image Layer</text></g><g class="edge"><title>SDB-&amp;gt;SIL</title><path fill="none" stroke="red" d="M244.039-168.809l93.855 124.38"/><path fill="red" stroke="red" d="M340.874-46.29l3.23 10.091-8.817-5.874 5.587-4.216z"/></g><g class="edge"><title>SDB-&amp;gt;Spark SQL</title><path fill="none" stroke="#000" d="M195.02-205.094c-29.929-19.119-71.925-48.978-97.97-69.751"/><ellipse stroke="#000" cx="93.897" cy="-277.401" rx="4" ry="4"/></g><g class="node"><title>Spark Core</title><path fill="#b0c4de" stroke="#b0c4de" d="M427.766-132.387h-79.741v36h79.741v-36z"/><text text-anchor="middle" x="387.896" y="-110.187" font-family="Times,serif" font-size="14">Spark Core</text></g><g class="edge"><title>SDB-&amp;gt;Spark Core</title><path fill="none" stroke="#000" d="M269.737-168.775l71.514 32.918"/><ellipse stroke="#000" cx="345.155" cy="-134.06" rx="4" ry="4"/></g><g class="edge"><title>SIL-&amp;gt;Spark Core</title><path fill="none" stroke="#000" d="M358.044-36.357c2.924-14.753 9.116-35.632 15.288-52.089"/><ellipse stroke="#000" cx="374.884" cy="-92.4" rx="4" ry="4"/></g><g class="edge"><title>SIL-&amp;gt;Spark Core</title><path fill="none" stroke="red" d="M369.404-36.306c5.803-14.073 12.114-33.741 16.067-49.824"/><path fill="red" stroke="red" d="M382.099-87.092l5.6-8.994 1.231 10.523-6.831-1.529z"/></g><g class="node"><title>MLLib</title><path fill="#b0c4de" stroke="#b0c4de" d="M582.622-58.364h-56.884v36h56.884v-36z"/><text text-anchor="middle" x="554.18" y="-36.164" font-family="Times,serif" font-size="14">MLLib</text></g><g class="edge"><title>SIL-&amp;gt;MLLib</title><path fill="none" stroke="#000" d="M419.691-25.045l97.91-11.152"/><ellipse stroke="#000" cx="521.785" cy="-36.674" rx="4" ry="4"/></g><g class="node"><title>GraphX</title><path fill="#b0c4de" stroke="#b0c4de" d="M738.743-110.082h-61.177v36h61.177v-36z"/><text text-anchor="middle" x="708.154" y="-87.882" font-family="Times,serif" font-size="14">GraphX</text></g><g class="edge"><title>SIL-&amp;gt;GraphX</title><path fill="none" stroke="#000" d="M419.66-31.074l249.406-52.743"/><ellipse stroke="#000" cx="673.306" cy="-84.713" rx="4" ry="4"/></g><g class="edge"><title>Spark SQL-&amp;gt;SDB</title><path fill="none" stroke="red" d="M108.718-279.812c29.295 18.714 70.151 47.718 96.294 68.42"/><path fill="red" stroke="red" d="M207.365-213.99l5.584 9.004-9.98-3.557 4.396-5.447z"/></g><g class="node"><title>Master Cloud Node</title><path fill="#b0c4de" stroke="#b0c4de" d="M518.428-206.443H391.591v36h126.837v-36z"/><text text-anchor="middle" x="455.01" y="-184.243" font-family="Times,serif" font-size="14">Master Cloud Node</text></g><g class="edge"><title>Spark Core-&amp;gt;Master Cloud Node</title><path fill="none" stroke="#000" d="M397.077-132.714c7.148-9.567 17.318-21.328 27.177-31.605"/><ellipse stroke="#000" cx="427.195" cy="-167.316" rx="4" ry="4"/></g><g class="edge"><title>Spark Core-&amp;gt;Master Cloud Node</title><path fill="none" stroke="red" d="M412.66-132.412c9.07-8.997 19.029-19.996 27.058-29.885"/><path fill="red" stroke="red" d="M437.034-164.546l8.913-5.729-3.395 10.037-5.518-4.308z"/></g><g class="edge"><title>MLLib-&amp;gt;Spark Core</title><path fill="none" stroke="#000" d="M525.595-53.089l-90.358-40.223"/><ellipse stroke="#000" cx="431.265" cy="-95.081" rx="4" ry="4"/></g><g class="edge"><title>GraphX-&amp;gt;Spark Core</title><path fill="none" stroke="#000" d="M677.446-94.221L435.948-111.04"/><ellipse stroke="#000" cx="431.67" cy="-111.338" rx="4" ry="4"/></g><g class="edge"><title>Master Cloud Node-&amp;gt;Worker 1</title><path fill="none" stroke="gray" d="M488.683-206.489l171.414-91.864"/><ellipse fill="gray" stroke="gray" cx="663.71" cy="-300.289" rx="4" ry="4"/></g><g class="edge"><title>Master Cloud Node-&amp;gt;Worker 2</title><path fill="none" stroke="gray" d="M436.687-206.638L311.12-331.335"/><ellipse fill="gray" stroke="gray" cx="307.931" cy="-334.501" rx="4" ry="4"/></g><g class="edge"><title>Master Cloud Node-&amp;gt;Worker 3</title><path fill="none" stroke="gray" d="M429.881-206.596l-49.405-35.689"/><ellipse fill="gray" stroke="gray" cx="377.165" cy="-244.677" rx="4" ry="4"/></g><g class="edge"><title>Master Cloud Node-&amp;gt;Worker 4</title><path fill="none" stroke="gray" d="M518.543-204.712l27.255-6.979"/><ellipse fill="gray" stroke="gray" cx="549.705" cy="-212.692" rx="4" ry="4"/></g></g></svg>