<svg width="600" height="277pt" viewBox="0.00 0.00 449.60 277.22" xmlns="http://www.w3.org/2000/svg"><g class="graph" transform="translate(4 273.223)"><title>%3</title><path fill="#fff" d="M-4 4v-277.223h449.601V4H-4z"/><g class="node"><title>Model</title><path fill="lightgray" stroke="lightgray" d="M54-154.012H0v36h54v-36z"/><text text-anchor="middle" x="27" y="-131.812" font-family="Times,serif" font-size="14">Model</text></g><g class="node"><title>Hypothesis</title><ellipse fill="none" stroke="lightgray" cx="142.212" cy="-251.223" rx="54.474" ry="18"/><text text-anchor="middle" x="142.212" y="-247.023" font-family="Times,serif" font-size="14">Hypothesis</text></g><g class="edge"><title>Model-&amp;gt;Hypothesis</title><path fill="none" stroke="#00f" d="M38.501-154.163c16.817-20.035 48.354-52.108 72.305-73.911"/><path fill="#00f" stroke="#00f" d="M108.5-230.707l9.787-4.057-5.121 9.275-4.666-5.218z"/></g><g class="edge"><title>Hypothesis-&amp;gt;Model</title><path fill="none" stroke="green" d="M131.137-233.581c-16.252 19.455-46.856 50.678-70.746 72.605"/><path fill="green" stroke="green" d="M62.665-158.313l-9.768 4.103 5.077-9.299 4.691 5.196z"/></g><g class="node"><title>Data</title><path fill="lightgray" stroke="lightgray" d="M284.423-154.012h-54v36h54v-36z"/><text text-anchor="middle" x="257.423" y="-131.812" font-family="Times,serif" font-size="14">Data</text></g><g class="edge"><title>Hypothesis-&amp;gt;Data</title><path fill="none" stroke="#00f" d="M159.71-233.725l72.327 72.328"/><path fill="#00f" stroke="#00f" d="M234.784-163.601l4.596 9.546-9.546-4.596 4.95-4.95z"/></g><g class="node"><title>Statistics Validation</title><path fill="#b0c4de" stroke="#b0c4de" d="M179.81-41.402h-75.197V-.198h75.197v-41.204z"/><text text-anchor="middle" x="142.212" y="-25" font-family="Times,serif" font-size="14">Statistics</text><text text-anchor="middle" x="142.212" y="-8.2" font-family="Times,serif" font-size="14">Validation</text></g><g class="edge"><title>Hypothesis-&amp;gt;Statistics Validation</title><path fill="none" stroke="#00f" d="M146.055-233.142c3.534 39.256 3.846 132.674.933 181.467"/><path fill="#00f" stroke="#00f" d="M150.46-51.145l-4.188 9.732-2.795-10.22 6.983.488z"/></g><g class="node"><title>Experiment</title><ellipse fill="none" stroke="lightgray" cx="385.512" cy="-136.012" rx="56.178" ry="18"/><text text-anchor="middle" x="385.512" y="-131.812" font-family="Times,serif" font-size="14">Experiment</text></g><g class="edge"><title>Experiment-&amp;gt;Data</title><path fill="none" stroke="green" d="M329.33-136.012h-34.899"/><path fill="green" stroke="green" d="M294.426-132.512l-10-3.5 10-3.5v7z"/></g><g class="edge"><title>Data-&amp;gt;Statistics Validation</title><path fill="none" stroke="green" d="M245.922-117.861c-15.648 18.643-44.04 47.707-67.207 69.223"/><path fill="green" stroke="green" d="M180.825-45.825l-9.74 4.168 5.015-9.333 4.725 5.165z"/></g><g class="edge"><title>Data-&amp;gt;Statistics Validation</title><path fill="none" stroke="#00f" d="M231.639-117.913c-20.845 18.463-49.677 47.2-68.967 68.68"/><path fill="#00f" stroke="#00f" d="M165.262-46.877l-9.233 5.198 3.976-9.821 5.257 4.623z"/></g><g class="edge"><title>Statistics Validation-&amp;gt;Model</title><path fill="none" stroke="red" d="M121.348-41.664L50.931-112.08"/><ellipse fill="red" stroke="red" cx="47.886" cy="-115.126" rx="4" ry="4"/></g><g class="edge"><title>Statistics Validation-&amp;gt;Hypothesis</title><path fill="none" stroke="green" d="M138.131-41.655c-3.374-41.522-3.55-134.556-.526-181.434"/><path fill="green" stroke="green" d="M134.122-223.451l4.248-9.706 2.732 10.236-6.98-.53z"/></g></g></svg>